<svg version="1.1" id="Layer_1" xmlns="http://www.w3.org/2000/svg" xmlns:xlink="http://www.w3.org/1999/xlink" x="0px" y="0px"
	 viewBox="0 0 258 123" style="enable-background:new 0 0 258 123;" xml:space="preserve">
<g id="XMLID_329_">
	<polyline id="XMLID_395_" style="fill:#8FC13F;" points="26.1,116 25.6,116.5 24.7,117.3 28.7,119.2 37.3,121.7 39.4,121.7 
		46.3,121.7 50.4,120.7 56.5,118.2 57.9,117.1 54.2,113.5 51.9,111.6 49.3,111.6 47.3,113.2 45.7,114.8 44.3,116.7 41.6,118.1 
		40.1,117.7 37.3,116.7 36.4,114.8 34.7,113.4 33,112.7 32,112.3 30.8,112.2 28.7,112.7 26.2,114.8 	"/>
	<path id="XMLID_394_" style="fill:#3B91B9;" d="M11.4,98.5c0,0,1.1,6,2.8,7.2c1.7,1.3,6.9,4.6,6.9,4.6l10.1-1l5.2-0.2l7.6,0.2
		l17.6,1l3.7-1h1.1l5.4-8.9l-0.3-2.1L11.4,98.5z"/>
	<g>
		<g id="XMLID_14_">
			<g>
				<rect id="XMLID_274_" x="74.2" y="63.6" style="fill:#010101;" width="0" height="0.1"/>
				<rect id="XMLID_273_" x="74.2" y="62.8" style="fill:#010101;" width="0" height="0.9"/>
				<rect id="XMLID_272_" x="73.7" y="62.8" style="fill:#010101;" width="0.5" height="0.9"/>
				<rect id="XMLID_271_" x="73.2" y="63.7" style="fill:#010101;" width="0.9" height="0"/>
				<path id="XMLID_270_" style="fill:#010101;" d="M74.1,43.5L74.1,43.5C74,43.6,74,43.5,74.1,43.5C74.1,43.5,74.1,43.5,74.1,43.5z
					"/>
				<path id="XMLID_269_" style="fill:#010101;" d="M74,43.5c0,0,0,0.1,0,0.1l-0.6,0.6c0,0,0,0-0.1-0.1c-0.1,0-0.1-0.1-0.2-0.1
					c0-0.1,0-0.2,0-0.2c0-0.3-0.1-0.6-0.1-0.9c0.3,0.2,0.6,0.3,0.8,0.4C73.9,43.4,74,43.4,74,43.5z"/>
				<path id="XMLID_268_" style="fill:#010101;" d="M74,43.5c-0.1,0-0.1-0.1-0.2-0.1c-0.2-0.1-0.5-0.3-0.8-0.4
					c-0.2-1.8-0.5-3.5-1-5.3c0-0.1-0.1-0.2-0.1-0.3c-0.4-1.5-0.9-3-1.5-4.4c0.1,0,0.2,0,0.3-0.1l-0.3-0.9l0.5-0.2
					c0.1,0.2,0.2,0.5,0.3,0.7c0.7,1.6,1.2,3.3,1.6,4.9C73.5,39.4,73.8,41.4,74,43.5z"/>
				<path id="XMLID_267_" style="fill:#010101;" d="M73.3,92.2h-0.4c0.1-0.8,0.2-1.6,0.3-2.4c0.1-0.9,0.1-1.8,0.1-2.7h0.4v-0.9h-0.3
					V69.1h0.3v-0.9h-0.3v-4.5h0.9v0h0v23.2c0,1,0,2-0.1,3c-0.1,1.1-0.2,2.1-0.4,3.2l-0.4-0.1V92.2z"/>
				<polygon id="XMLID_266_" style="fill:#010101;" points="73.7,51.1 73.2,51.1 73.2,50.6 74.2,50.6 74.2,62.8 73.7,62.8 				"/>
				<polygon id="XMLID_265_" style="fill:#010101;" points="73.7,51.1 73.7,62.8 73.2,62.8 73.2,51.6 73.2,51.1 				"/>
				<polygon id="XMLID_264_" style="fill:#010101;" points="73.7,63.6 74.2,63.6 74.2,63.7 73.2,63.7 73.2,63.6 				"/>
				<path id="XMLID_263_" style="fill:#010101;" d="M73.3,93.1l0.4,0.1c-0.1,0.9-0.3,1.8-0.5,2.7c-0.1,0.5-0.2,0.9-0.4,1.4
					c-0.1,0.5-0.3,0.9-0.4,1.3c0,0.1,0,0.1-0.1,0.2V98h-0.7c0.1-0.3,0.2-0.6,0.3-1c0.1-0.5,0.3-1,0.4-1.4c0.2-0.8,0.4-1.7,0.5-2.6
					H73.3z"/>
				<path id="XMLID_262_" style="fill:#010101;" d="M73.6,86.3v0.9h-0.4c0-0.1,0-0.2,0-0.3v-0.6H73.6z"/>
				<rect id="XMLID_261_" x="73.2" y="68.2" style="fill:#010101;" width="0.3" height="0.9"/>
				<path id="XMLID_260_" style="fill:#010101;" d="M73.5,44.2l0.6-0.6c0,0,0,0.1,0,0.1c0.1,1.1,0.1,2.2,0.1,3.3v15.7h0V50.6h-0.9
					V47c0-1,0-2-0.1-3c0.1,0,0.1,0.1,0.2,0.1C73.4,44.2,73.5,44.2,73.5,44.2z"/>
				<path id="XMLID_259_" style="fill:#010101;" d="M73.3,92.2v0.8h-0.5c0-0.3,0.1-0.6,0.1-0.8H73.3z"/>
				<path id="XMLID_258_" style="fill:#010101;" d="M73.2,86.3v0.6c0,0.1,0,0.2,0,0.3H62.8v-0.4c0.8,0,1.5-0.2,2.2-0.6H73.2z"/>
				<path id="XMLID_257_" style="fill:#E11772;" d="M73.2,69.1v17.1H65c1.4-0.8,2.3-2.3,2.3-3.9V69.1H73.2z"/>
				<polygon id="XMLID_256_" style="fill:#010101;" points="73.2,68.2 73.2,69.1 67.3,69.1 67.3,68.7 67.3,68.2 				"/>
				<polygon id="XMLID_255_" style="fill:#FFFFFF;" points="73.2,63.7 73.2,68.2 67.3,68.2 54.3,68.2 41.4,68.2 41.4,63.7 
					51.2,63.7 65.9,63.7 65.9,63.7 				"/>
				<rect id="XMLID_254_" x="66.8" y="51.6" style="fill:#FAFAFA;" width="6.4" height="11.2"/>
				<path id="XMLID_253_" style="fill:#010101;" d="M72.3,98.8V99h-0.1C72.3,98.9,72.3,98.9,72.3,98.8z"/>
				<path id="XMLID_252_" style="fill:#010101;" d="M72.3,98v0.8c0,0.1,0,0.1-0.1,0.2h-1c0.1-0.2,0.1-0.4,0.2-0.6
					c0-0.1,0.1-0.2,0.1-0.3H72.3z"/>
				<path id="XMLID_251_" style="fill:#E21F26;" d="M51.1,37.1L51.1,37.1c0,0,0.1,0,0.1,0l0.1,0c0.7,0,1,0.3,1.5,0.7
					c0.5,0.4,1,0.9,2.1,0.9c1.1,0,1.6-0.5,2.1-0.9c0.4-0.3,0.7-0.6,1.2-0.6c0.1,0,0.2,0,0.3,0c0.7,0,1.1,0.3,1.5,0.7
					c0.5,0.4,1,0.9,2.1,0.9c1.1,0,1.6-0.5,2.1-0.9c0.4-0.4,0.8-0.7,1.5-0.7c0.7,0,1,0.3,1.5,0.7c0.5,0.4,1,0.9,2.1,0.9
					c1.1,0,1.6-0.5,2.1-0.9c0.2-0.1,0.3-0.3,0.5-0.4l0.1,0c0,0.1,0.1,0.2,0.1,0.3c0.4,1.7,0.8,3.5,1,5.3c-1-0.5-2.4-1.1-3.2-1.1
					c-1.1,0-1.6,0.5-2.1,0.9c-0.4,0.4-0.8,0.7-1.5,0.7c-0.7,0-1.1-0.3-1.5-0.7c-0.2-0.2-0.4-0.4-0.7-0.5c0,0,0,0,0,0c0,0,0,0,0,0
					l0,0c0,0,0,0,0,0c0,0,0,0,0,0c-0.4-0.2-0.8-0.3-1.4-0.3c-1.1,0-1.6,0.5-2.1,0.9c-0.4,0.4-0.8,0.7-1.5,0.7c-0.7,0-1-0.3-1.5-0.7
					c-0.5-0.4-1-0.9-2.1-0.9c-1.1,0-1.6,0.5-2.1,0.9c-0.4,0.4-0.8,0.7-1.5,0.7c-0.1,0-0.1,0-0.2,0c-0.5,0-0.8-0.2-1.1-0.5
					c-0.1-0.1-0.1-0.1-0.2-0.2c-0.5-0.4-1-0.9-2.1-0.9c-1.1,0-1.6,0.5-2.1,0.9c-0.4,0.4-0.8,0.7-1.5,0.7c-0.3,0-0.6,0-0.9,0l6.7-6.4
					l0,0.1L51.1,37.1z"/>
				<path id="XMLID_250_" style="fill:#E21F26;" d="M72,37.3l-0.1,0l-0.5-0.8c-0.2,0.1-0.4,0.3-0.6,0.5c-0.4,0.4-0.8,0.7-1.5,0.7
					c-0.7,0-1.1-0.3-1.5-0.7c-0.5-0.4-1-0.9-2.1-0.9c-1.1,0-1.6,0.5-2.1,0.9c-0.4,0.4-0.8,0.7-1.5,0.7c-0.7,0-1.1-0.3-1.5-0.7
					c-0.5-0.4-1-0.9-2.1-0.9c-0.1,0-0.2,0-0.3,0c-0.9,0.1-1.4,0.5-1.8,0.9c-0.4,0.4-0.8,0.7-1.5,0.7c-0.7,0-1.1-0.3-1.5-0.7
					c-0.4-0.4-1-0.9-2-0.9l4.6-4.3c0.1,0,0.1,0.1,0.2,0.2c0.4,0.4,0.9,0.9,1.9,0.9c1,0,1.5-0.5,1.8-0.9c0.4-0.4,0.6-0.6,1.2-0.6
					c0.6,0,0.8,0.3,1.2,0.6c0.4,0.4,0.9,0.9,1.9,0.9c1,0,1.4-0.5,1.8-0.9c0.2-0.2,0.4-0.4,0.6-0.5l0,0c0.2-0.1,0.3-0.1,0.5-0.1
					c0.6,0,0.8,0.3,1.2,0.6c0.4,0.4,0.9,0.9,1.9,0.9c0.1,0,0.2,0,0.3,0C71.1,34.3,71.6,35.8,72,37.3z"/>
				<path id="XMLID_249_" style="fill:#010101;" d="M71,98h0.6c0,0.1-0.1,0.2-0.1,0.3c-0.1,0.2-0.1,0.4-0.2,0.6H71l-13.1,0v0l0-0.9
					v0L71,98z"/>
				<path id="XMLID_248_" style="fill:#010101;" d="M70.5,31.9l0.3,0.9c-0.1,0-0.2,0-0.3,0.1c0,0,0,0,0,0c-0.1-0.3-0.2-0.6-0.4-0.9
					c0,0,0,0,0.1,0C70.3,32,70.4,32,70.5,31.9z"/>
				<path id="XMLID_247_" style="fill:#010101;" d="M70.2,103.3v-0.9c-0.1,0-0.2,0-0.3,0c0.5-1.1,1-2.3,1.4-3.4h1
					c-0.5,1.5-1.1,3-1.8,4.5L70.2,103.3z"/>
				<path id="XMLID_246_" style="fill:#010101;" d="M70.2,32.9c-1,0-1.5-0.5-1.9-0.9c-0.4-0.4-0.6-0.6-1.2-0.6c-0.2,0-0.4,0-0.5,0.1
					l0,0c-0.2,0.1-0.4,0.3-0.6,0.5c-0.4,0.4-0.9,0.9-1.8,0.9c-1,0-1.5-0.5-1.9-0.9c-0.4-0.4-0.6-0.6-1.2-0.6c-0.6,0-0.8,0.3-1.2,0.6
					c-0.4,0.4-0.9,0.9-1.8,0.9c-1,0-1.5-0.5-1.9-0.9c-0.1-0.1-0.1-0.1-0.2-0.2l0.3-0.3l0.4-0.4c0.1,0.1,0.1,0.1,0.2,0.2
					c0.4,0.4,0.6,0.6,1.2,0.6c0.6,0,0.8-0.3,1.2-0.6c0.4-0.4,0.9-0.9,1.8-0.9c1,0,1.5,0.5,1.9,0.9c0.4,0.4,0.6,0.6,1.2,0.6
					c0.6,0,0.8-0.3,1.2-0.6c0.3-0.3,0.5-0.6,0.9-0.7l0.1,0c0.2-0.1,0.5-0.1,0.8-0.1c1,0,1.5,0.5,1.8,0.9c0.3,0.4,0.6,0.6,1.1,0.6
					c0.1,0.3,0.3,0.6,0.4,0.9c0,0,0,0,0,0C70.4,32.9,70.3,32.9,70.2,32.9z"/>
				<path id="XMLID_245_" style="fill:#010101;" d="M70.2,102.4v0.9c-0.3,0-0.6,0-0.8,0.1c0.2-0.3,0.3-0.7,0.5-1
					C70,102.4,70.1,102.4,70.2,102.4z"/>
				<path id="XMLID_244_" style="fill:#010101;" d="M69.9,102.4c-0.2,0.3-0.3,0.7-0.5,1c-1.7,0.3-2.6,1.4-3.7,2.7
					c-1.3,1.5-2.5,3.1-5.2,3.1c-2.6,0-3.9-1.6-5.2-3.1c-1.2-1.4-2.3-2.7-4.5-2.7c-2.2,0-3.3,1.3-4.5,2.7c-1.3,1.5-2.5,3.1-5.2,3.1
					c-2.6,0-3.9-1.6-5.2-3.1c-1.2-1.4-2.3-2.7-4.5-2.7c-2.2,0-3.3,1.3-4.5,2.7c-1.3,1.5-2.6,3.1-5.2,3.1c-2.6,0-3.9-1.6-5.2-3.1
					c-1-1.2-1.9-2.3-3.5-2.6c0-0.1-0.1-0.1-0.1-0.2c-0.1-0.3-0.3-0.6-0.4-0.8c2.3,0.2,3.5,1.6,4.7,3c1.2,1.4,2.3,2.7,4.5,2.7
					c2.2,0,3.3-1.3,4.5-2.7c1.3-1.5,2.5-3.1,5.2-3.1c2.6,0,3.9,1.6,5.2,3.1c1.2,1.4,2.3,2.7,4.5,2.7s3.3-1.3,4.5-2.7
					c1.3-1.5,2.6-3.1,5.2-3.1c2.6,0,3.9,1.6,5.2,3.1c1.2,1.4,2.3,2.7,4.5,2.7c2.2,0,3.3-1.3,4.5-2.7C66.2,104,67.5,102.5,69.9,102.4
					z"/>
				<path id="XMLID_243_" style="fill:#E21F26;" d="M70.1,32c-0.5,0-0.8-0.3-1.1-0.6c-0.4-0.4-0.9-0.9-1.8-0.9c-0.3,0-0.6,0-0.8,0.1
					l-0.1,0c-0.4,0.2-0.7,0.5-0.9,0.7c-0.4,0.4-0.6,0.6-1.2,0.6c-0.6,0-0.8-0.3-1.2-0.6c-0.4-0.4-0.9-0.9-1.9-0.9
					c-1,0-1.5,0.5-1.8,0.9c-0.4,0.4-0.6,0.6-1.2,0.6c-0.6,0-0.8-0.3-1.2-0.6c-0.1-0.1-0.1-0.1-0.2-0.2l3.5-3.5h7.6
					C68.7,29.1,69.5,30.5,70.1,32z"/>
				<path id="XMLID_242_" style="fill:#1E9045;" d="M69.4,103.4C69.4,103.4,69.4,103.4,69.4,103.4c-0.2,0.3-0.3,0.6-0.5,0.9
					c-0.9,1.6-1.9,3.2-3,4.7c-0.4,0.6-0.9,1.1-1.4,1.7c-0.4,0.4-0.7,0.8-1.1,1.2c-0.1,0.1-0.2,0.3-0.4,0.4l-0.1,0.1c0,0,0,0,0,0l0,0
					c-1.6,1.6-3.3,3-5.1,4.2c-0.8-0.5-1.5-1.3-2.1-2.1c-1.3-1.5-2.5-3.1-5.2-3.1c-2.6,0-3.9,1.6-5.2,3.1c-1.2,1.4-2.3,2.7-4.5,2.7
					c-2.2,0-3.3-1.3-4.5-2.7c-1.3-1.5-2.5-3.1-5.2-3.1c-2.6,0-3.9,1.6-5.2,3.1c-0.6,0.7-1.1,1.3-1.7,1.8c-1-0.7-2-1.4-2.9-2.3
					c-0.9-0.8-1.8-1.7-2.6-2.6c-0.2-0.2-0.4-0.5-0.6-0.7c-0.7-0.8-1.3-1.6-2-2.5c-0.6-0.8-1.1-1.7-1.6-2.5c-0.5-0.8-0.9-1.5-1.3-2.3
					c1.6,0.3,2.5,1.4,3.5,2.6c1.3,1.5,2.5,3.1,5.2,3.1c2.6,0,3.9-1.6,5.2-3.1c1.2-1.4,2.3-2.7,4.5-2.7c2.2,0,3.3,1.3,4.5,2.7
					c1.3,1.5,2.5,3.1,5.2,3.1c2.6,0,3.9-1.6,5.2-3.1c1.2-1.4,2.3-2.7,4.5-2.7c2.2,0,3.3,1.3,4.5,2.7c1.3,1.5,2.6,3.1,5.2,3.1
					c2.6,0,3.9-1.6,5.2-3.1C66.8,104.9,67.7,103.7,69.4,103.4z"/>
				<path id="XMLID_241_" style="fill:#010101;" d="M68.5,27c1,1.5,1.8,3.1,2.5,4.8l-0.5,0.2c-0.1,0-0.2,0-0.4,0c0,0,0,0-0.1,0
					c-0.7-1.5-1.4-2.9-2.2-4.3h0.5v-0.9l0,0C68.4,26.8,68.5,26.9,68.5,27z"/>
				<path id="XMLID_240_" style="fill:#010101;" d="M68.4,26.7L68.4,26.7l-1.1,0c-0.7-1-1.4-2.1-2.2-3c-0.4-0.4-0.7-0.9-1.1-1.3
					c-3.8-4.1-8.6-7.2-13.7-8.8c-2.9-0.9-5.8-1.3-8.8-1.3c-8.8,0-17.3,4-23.3,11.1c-0.9,1.1-1.8,2.2-2.6,3.4h-1.1
					c0.9-1.4,1.9-2.8,3-4c3-3.6,6.6-6.4,10.7-8.3c4.2-2,8.7-3.1,13.3-3.1c3.1,0,6.1,0.5,9.1,1.4c5.3,1.7,10.2,4.8,14.1,9.1
					c0.4,0.5,0.8,0.9,1.2,1.3C66.7,24.3,67.6,25.5,68.4,26.7z"/>
				<path id="XMLID_239_" style="fill:#010101;" d="M68.4,26.8v0.9h-0.5c0-0.1-0.1-0.2-0.1-0.2c-0.2-0.2-0.3-0.5-0.5-0.7H68.4z"/>
				<path id="XMLID_238_" style="fill:#010101;" d="M67.7,27.5c0,0.1,0.1,0.2,0.1,0.2h-7.6l-3.5,3.5c-0.1-0.1-0.3-0.3-0.4-0.4
					l-0.3-0.3l3.8-3.8h7.4C67.4,27,67.6,27.2,67.7,27.5z"/>
				<path id="XMLID_237_" style="fill:#010101;" d="M67.3,69.1v13.2c0-1-0.3-2-0.9-2.8V69.1H67.3z"/>
				<rect id="XMLID_236_" x="66.4" y="68.7" style="fill:#010101;" width="0.9" height="0.5"/>
				<path id="XMLID_235_" style="fill:#010101;" d="M67.3,82.3h-0.9v-2.8C67,80.3,67.3,81.3,67.3,82.3z"/>
				<path id="XMLID_234_" style="fill:#010101;" d="M66.4,82.3h0.9c0,1.7-0.9,3.2-2.3,3.9h-2.2v-0.4C64.8,85.9,66.4,84.3,66.4,82.3z
					"/>
				<path id="XMLID_231_" style="fill:#FFFFFF;" d="M67.3,26.8h-7.4l-3.8,3.8l-0.3,0.3l-5.4,5l-7.9,7.4l0.3,0.3l-0.1,0.5
					c0.6,0.1,1.3,0.2,2,0.2c1.1,0,1.6-0.5,2.1-0.9c0.4-0.4,0.8-0.7,1.5-0.7c0.7,0,1.1,0.3,1.5,0.7c0.1,0.1,0.1,0.1,0.2,0.2
					c0.3,0.2,0.7,0.5,1.2,0.6v4.1c-3.1-0.9-6.3-1.4-9.6-1.4c-0.1,0-0.3,0-0.4,0c-3.3,0-6.6,0.6-9.7,1.5v-4.3
					c0.5-0.1,0.9-0.4,1.2-0.6c0.1-0.1,0.2-0.1,0.2-0.2c0.4-0.4,0.8-0.7,1.5-0.7c0.7,0,1.1,0.3,1.5,0.7c0.5,0.4,1,0.9,2.1,0.9
					c0.7,0,1.3-0.1,2-0.2l-0.1-0.5l0.3-0.3l-7.9-7.4l-5.4-5l-0.3-0.3l-3.8-3.8h-7.2c0.8-1.2,1.6-2.3,2.6-3.4
					c6-7,14.5-11.1,23.3-11.1c3,0,5.9,0.4,8.8,1.3c5.2,1.6,9.9,4.7,13.7,8.8c0.4,0.4,0.8,0.9,1.1,1.3C65.8,24.7,66.6,25.7,67.3,26.8
					z M49.7,23.5c0-4.7-3.8-8.6-8.5-8.6c-4.7,0-8.6,3.8-8.6,8.6c0,4.7,3.8,8.6,8.6,8.6C45.9,32,49.7,28.2,49.7,23.5z"/>
				<polygon id="XMLID_230_" style="fill:#010101;" points="73.2,51.6 66.8,51.6 66.8,62.8 66.3,62.8 66.3,57.4 66.3,51.1 
					73.2,51.1 				"/>
				<polygon id="XMLID_229_" style="fill:#010101;" points="66.8,62.8 73.2,62.8 73.7,62.8 73.7,63.6 73.2,63.6 66.3,63.6 
					66.3,62.8 				"/>
				<path id="XMLID_228_" style="fill:#010101;" d="M66.4,79.6v2.8c0-2-1.6-3.6-3.6-3.6c-2,0-3.6,1.6-3.6,3.6c0,2,1.6,3.6,3.6,3.6
					v0.4h-2.2c-1.4-0.8-2.3-2.3-2.3-3.9c0-2.5,2-4.5,4.5-4.5C64.3,77.8,65.6,78.5,66.4,79.6z"/>
				<path id="XMLID_227_" style="fill:#E11772;" d="M66.4,69.1v10.4c-0.8-1.1-2.1-1.8-3.6-1.8c-2.5,0-4.5,2-4.5,4.5
					c0,1.7,0.9,3.2,2.3,3.9h-6.3V69.1H66.4z"/>
				<polygon id="XMLID_226_" style="fill:#010101;" points="66.4,68.7 66.4,69.1 54.3,69.1 54.3,68.7 54.3,68.2 67.3,68.2 
					67.3,68.7 				"/>
				<polygon id="XMLID_225_" style="fill:#010101;" points="66.3,57.4 66.3,62.8 65.9,62.8 65.9,58.3 66.3,58.3 66.3,57.4 				"/>
				<polygon id="XMLID_224_" style="fill:#010101;" points="65.9,57.4 65.9,50.6 73.2,50.6 73.2,51.1 66.3,51.1 66.3,57.4 
					66.3,57.4 				"/>
				<polygon id="XMLID_223_" style="fill:#010101;" points="73.2,63.7 65.9,63.7 65.9,62.8 66.3,62.8 66.3,63.6 73.2,63.6 				"/>
				<rect id="XMLID_222_" x="65.9" y="57.4" style="fill:#010101;" width="0.5" height="0.9"/>
				<rect id="XMLID_221_" x="65.9" y="63.7" style="fill:#010101;" width="7.4" height="0"/>
				<polygon id="XMLID_220_" style="fill:#010101;" points="65.9,62.8 65.9,63.7 51.2,63.7 51.2,63.2 52.1,63.2 52.1,62.8 				"/>
				<rect id="XMLID_219_" x="52.1" y="58.3" style="fill:#1572B2;" width="13.7" height="4.4"/>
				<rect id="XMLID_218_" x="52.1" y="57.4" style="fill:#010101;" width="13.7" height="0.9"/>
				<path id="XMLID_217_" style="fill:#FFFFFF;" d="M62.8,78.7c2,0,3.6,1.6,3.6,3.6c0,2-1.6,3.6-3.6,3.6c-2,0-3.6-1.6-3.6-3.6
					C59.3,80.3,60.9,78.7,62.8,78.7z"/>
				<path id="XMLID_216_" style="fill:#010101;" d="M65.2,43.1l-0.5,0.8c-0.2-0.1-0.3-0.3-0.5-0.4c-0.2-0.2-0.4-0.3-0.6-0.4l0,0l0,0
					c0,0,0,0,0,0l0,0l0,0c-0.3-0.2-0.5-0.2-0.9-0.2c-0.7,0-1.1,0.3-1.5,0.7c-0.4,0.4-1,0.9-2,0.9v-0.9h0c0.7,0,1.1-0.3,1.5-0.7
					c0.5-0.4,1-0.9,2.1-0.9c0.5,0,0.9,0.1,1.3,0.3c0,0,0,0,0,0c0,0,0,0,0,0c0,0,0,0,0,0c0,0,0,0,0,0c0.2,0.1,0.4,0.3,0.6,0.5
					C64.9,42.8,65,43,65.2,43.1z"/>
				<path id="XMLID_215_" style="fill:#010101;" d="M64.8,42.7c0.4,0.4,0.8,0.7,1.5,0.7c0.7,0,1.1-0.3,1.5-0.7
					c0.5-0.4,1-0.9,2.1-0.9c0.7,0,2.2,0.6,3.2,1.1c0,0.3,0.1,0.6,0.1,0.9c0,0.1,0,0.2,0,0.2c-0.9-0.5-2.7-1.2-3.3-1.2
					c-0.7,0-1.1,0.3-1.5,0.7c-0.5,0.4-1,0.9-2.1,0.9c-0.7,0-1.2-0.2-1.6-0.5l0.5-0.8C65,43,64.9,42.8,64.8,42.7
					c-0.3-0.2-0.5-0.4-0.7-0.5C64.4,42.4,64.6,42.6,64.8,42.7z"/>
				<path id="XMLID_214_" style="fill:#010101;" d="M62.8,86.3H65c-0.6,0.4-1.4,0.6-2.2,0.6s-1.5-0.2-2.2-0.6H62.8z"/>
				<path id="XMLID_213_" style="fill:#010101;" d="M64.1,43.4c-0.2-0.1-0.3-0.3-0.5-0.4l0,0C63.8,43.1,64,43.3,64.1,43.4
					c0.2,0.2,0.4,0.3,0.6,0.5l0,0C64.5,43.7,64.3,43.6,64.1,43.4z"/>
				<path id="XMLID_212_" style="fill:#E21F26;" d="M64.1,42.2C64.1,42.2,64.1,42.2,64.1,42.2C64.1,42.2,64.1,42.2,64.1,42.2
					C64.1,42.2,64.1,42.2,64.1,42.2C64.1,42.2,64.1,42.2,64.1,42.2C64,42.2,64,42.2,64.1,42.2C64,42.2,64,42.2,64.1,42.2L64.1,42.2z
					"/>
				<path id="XMLID_211_" style="fill:#1E9045;" d="M63.5,111.9c0.4-0.4,0.7-0.8,1.1-1.2C64.2,111.1,63.9,111.5,63.5,111.9z"/>
				<path id="XMLID_210_" style="fill:#010101;" d="M63.6,43L63.6,43L63.6,43C63.6,43,63.6,43,63.6,43L63.6,43z"/>
				<path id="XMLID_209_" style="fill:#010101;" d="M62.8,86.8v0.4h-8.5v-0.9h6.3C61.3,86.6,62,86.8,62.8,86.8z"/>
				<path id="XMLID_208_" style="fill:#010101;" d="M59.1,44.3c1,0,1.6-0.5,2-0.9c0.4-0.4,0.8-0.7,1.5-0.7c0.4,0,0.6,0.1,0.9,0.2
					l0,0c-0.2-0.1-0.5-0.2-0.8-0.2c-0.7,0-1,0.3-1.5,0.7C60.8,43.8,60.2,44.4,59.1,44.3L59.1,44.3L59.1,44.3z"/>
				<path id="XMLID_207_" style="fill:#FFFFFF;" d="M59.1,44.3L59.1,44.3L59.1,44.3c1.1,0.1,1.7-0.4,2.1-0.8
					c0.4-0.4,0.8-0.7,1.5-0.7c0.3,0,0.6,0.1,0.8,0.2l0.1,0c0.2,0.1,0.3,0.2,0.5,0.4c0.2,0.2,0.4,0.3,0.6,0.5l0,0
					c0.4,0.3,0.9,0.5,1.6,0.5c1.1,0,1.6-0.5,2.1-0.9c0.4-0.4,0.8-0.7,1.5-0.7c0.6,0,2.4,0.8,3.3,1.2c0.1,1,0.1,2,0.1,3v3.6h-7.4v6.8
					H52.1v-8.9v-4.2c0.9-0.1,1.4-0.5,1.9-0.9c0.4-0.4,0.8-0.7,1.5-0.7c0.7,0,1.1,0.3,1.5,0.7C57.4,43.8,58,44.3,59.1,44.3
					C59.1,44.3,59.1,44.3,59.1,44.3z"/>
				<path id="XMLID_206_" style="fill:#010101;" d="M58.6,37.1c-0.1,0-0.2,0-0.3,0v0l0-0.9c0.1,0,0.2,0,0.3,0c1.1,0,1.6,0.5,2.1,0.9
					c0.4,0.4,0.8,0.7,1.5,0.7c0.7,0,1.1-0.3,1.5-0.7c0.5-0.4,1-0.9,2.1-0.9c1.1,0,1.6,0.5,2.1,0.9c0.4,0.4,0.8,0.7,1.5,0.7
					c0.7,0,1.1-0.3,1.5-0.7c0.2-0.2,0.4-0.3,0.6-0.5l0.5,0.8c-0.2,0.1-0.3,0.2-0.5,0.4c-0.5,0.4-1,0.9-2.1,0.9
					c-1.1,0-1.6-0.5-2.1-0.9c-0.4-0.4-0.8-0.7-1.5-0.7c-0.7,0-1.1,0.3-1.5,0.7c-0.5,0.4-1,0.9-2.1,0.9c-1.1,0-1.6-0.5-2.1-0.9
					C59.6,37.4,59.3,37.1,58.6,37.1z"/>
				<polygon id="XMLID_205_" style="fill:#010101;" points="58.2,36.1 58.2,37.1 58.2,37.1 				"/>
				<path id="XMLID_204_" style="fill:#010101;" d="M58.1,116.7l-0.4,0.8c-0.2-0.1-0.4-0.3-0.7-0.4c0,0,0,0,0,0
					c0.2-0.1,0.4-0.2,0.5-0.3c0.1-0.1,0.2-0.1,0.3-0.2C58,116.6,58.1,116.7,58.1,116.7z"/>
				<path id="XMLID_203_" style="fill:#010101;" d="M57.7,117.6l0.4-0.8c-0.1,0-0.2-0.1-0.2-0.1v0c1.8-1.2,3.5-2.6,5.1-4.2l0,0
					c0,0,0,0,0,0l0.1-0.1c0.1-0.1,0.3-0.3,0.4-0.4c0.4-0.4,0.7-0.8,1.1-1.2c0.5-0.5,0.9-1.1,1.4-1.7c1.1-1.5,2.1-3,3-4.7
					c0.2-0.3,0.3-0.6,0.5-0.9c0,0,0,0,0,0c0.3,0,0.5-0.1,0.8-0.1l0.2,0.1c-0.1,0.1-0.1,0.3-0.2,0.4c-0.2,0.3-0.3,0.6-0.5,0.9
					c-0.9,1.7-1.9,3.3-3.1,4.8c-0.9,1.2-1.8,2.3-2.8,3.3v0.3l-0.3,0c-1.8,1.8-3.7,3.3-5.8,4.6L57.7,117.6z"/>
				<polygon id="XMLID_202_" style="fill:#010101;" points="57.9,98.1 57.9,99 57.9,98.1 				"/>
				<path id="XMLID_201_" style="fill:#010101;" d="M57.9,116.6L57.9,116.6c-0.1,0.1-0.2,0.1-0.3,0.2
					C57.7,116.7,57.8,116.7,57.9,116.6z"/>
				<path id="XMLID_200_" style="fill:#010101;" d="M57.9,116.6c-0.1,0.1-0.2,0.1-0.3,0.2c-0.2,0.1-0.4,0.2-0.5,0.3c0,0,0,0,0,0
					c-0.8-0.6-1.4-1.3-2-2c-1.2-1.4-2.3-2.7-4.5-2.7c-2.2,0-3.3,1.3-4.5,2.7c-1.2,1.5-2.5,3.1-5.2,3.1c-2.6,0-3.9-1.6-5.2-3.1
					c-1.2-1.4-2.3-2.7-4.5-2.7s-3.3,1.3-4.5,2.7c-0.5,0.6-1,1.2-1.6,1.7c-0.3-0.2-0.5-0.4-0.8-0.5c0.6-0.5,1.2-1.1,1.7-1.8
					c1.3-1.5,2.6-3.1,5.2-3.1c2.6,0,3.9,1.6,5.2,3.1c1.2,1.4,2.3,2.7,4.5,2.7c2.2,0,3.3-1.3,4.5-2.7c1.3-1.5,2.5-3.1,5.2-3.1
					c2.6,0,3.9,1.6,5.2,3.1C56.4,115.3,57.1,116.1,57.9,116.6z"/>
				<path id="XMLID_199_" style="fill:#010101;" d="M57.7,117.6l0.1,0.2c-0.8,0.5-1.7,1-2.5,1.4l-0.4-0.8c0.6-0.3,1.1-0.6,1.6-0.9
					c0,0,0,0,0,0c0.2-0.1,0.3-0.2,0.5-0.3C57.2,117.3,57.5,117.4,57.7,117.6z"/>
				<path id="XMLID_198_" style="fill:#010101;" d="M57.1,117.1C57.1,117.1,57.1,117.1,57.1,117.1C57,117.1,57,117.1,57.1,117.1
					C57.1,117.1,57.1,117.1,57.1,117.1z"/>
				<path id="XMLID_197_" style="fill:#1E9045;" d="M57,117.1c-0.2,0.1-0.3,0.2-0.5,0.3C56.7,117.3,56.9,117.2,57,117.1
					C57,117.1,57,117.1,57,117.1z"/>
				<path id="XMLID_196_" style="fill:#010101;" d="M56.7,31.2l-0.4,0.4l-0.3,0.3c-0.1-0.1-0.2-0.2-0.3-0.3l0.6-0.8
					C56.5,30.9,56.6,31.1,56.7,31.2z"/>
				<path id="XMLID_195_" style="fill:#010101;" d="M54.9,118.4c0.6-0.3,1.1-0.6,1.6-0.9C56,117.8,55.4,118.1,54.9,118.4z"/>
				<path id="XMLID_194_" style="fill:#010101;" d="M54.9,118.4l0.4,0.8c-0.2,0.1-0.4,0.2-0.6,0.3c-4.2,2-8.7,3.1-13.3,3.1
					c-0.1,0-0.3,0-0.4,0h0c-5.9-0.1-11.5-1.8-16.4-5l0.2-0.2c0.2-0.1,0.4-0.3,0.5-0.4c4.7,3.1,10.1,4.7,15.7,4.8h0
					c0.1,0,0.3,0,0.4,0c4.5,0,8.8-1,12.9-3C54.5,118.5,54.7,118.5,54.9,118.4L54.9,118.4z"/>
				<path id="XMLID_193_" style="fill:#010101;" d="M54.3,92.2v0.4h-0.2c0-0.1,0-0.3-0.1-0.4H54.3z"/>
				<path id="XMLID_192_" style="fill:#010101;" d="M54.3,87.2v5h-0.2c-0.1-0.6-0.4-1.2-0.7-1.7v-3.3H54.3z"/>
				<rect id="XMLID_191_" x="53.4" y="86.3" style="fill:#010101;" width="0.9" height="0.9"/>
				<rect id="XMLID_190_" x="53.4" y="69.1" style="fill:#010101;" width="0.9" height="17.1"/>
				<rect id="XMLID_189_" x="53.4" y="68.7" style="fill:#010101;" width="0.9" height="0.5"/>
				<path id="XMLID_188_" style="fill:#010101;" d="M54.2,93.1c0-0.1,0-0.3,0-0.4h0.2v-0.4h18.5c0,0.3-0.1,0.6-0.1,0.8L54.2,93.1
					C54.2,93.1,54.2,93.1,54.2,93.1z"/>
				<path id="XMLID_187_" style="fill:#010101;" d="M54.2,93.1C54.2,93.1,54.2,93.1,54.2,93.1l-0.5,0v-0.4h0.5
					C54.2,92.8,54.2,92.9,54.2,93.1z"/>
				<path id="XMLID_186_" style="fill:#010101;" d="M54.2,92.7h-0.5v-0.4h0.4C54.1,92.4,54.2,92.5,54.2,92.7z"/>
				<path id="XMLID_185_" style="fill:#010101;" d="M46.1,93.1c0,2,1.6,3.6,3.6,3.6c2,0,3.6-1.6,3.6-3.6c0-0.1,0-0.3,0-0.4l0.2,0
					h0.3v0.4h0.5c0,2.5-2,4.5-4.5,4.5c-2.5,0-4.5-2-4.5-4.5h0.5v0H46.1z"/>
				<path id="XMLID_184_" style="fill:#010101;" d="M53.7,92.2v0.4h-0.3v-2.1c0.3,0.5,0.6,1.1,0.7,1.7H53.7z"/>
				<path id="XMLID_183_" style="fill:#E11772;" d="M53.4,87.2v3.3c-0.8-1.2-2.2-2-3.7-2c-2.2,0-4.1,1.6-4.4,3.7h-3.8v-4.8
					c1.2,0,2.4-0.1,3.6-0.2H53.4z"/>
				<path id="XMLID_182_" style="fill:#010101;" d="M53.4,86.3v0.9H45c0.2,0,0.3,0,0.5-0.1l-0.1-0.8v-0.1H53.4z"/>
				<polygon id="XMLID_181_" style="fill:#F3941F;" points="53.4,69.1 53.4,86.3 45.4,86.3 41.4,86.3 41.4,69.1 				"/>
				<polygon id="XMLID_180_" style="fill:#010101;" points="53.4,68.7 53.4,69.1 41.4,69.1 41.4,68.2 54.3,68.2 54.3,68.7 				"/>
				<path id="XMLID_179_" style="fill:#FFFFFF;" d="M53.3,93.1c0,2-1.6,3.6-3.6,3.6c-2,0-3.6-1.6-3.6-3.6c0-2,1.6-3.6,3.6-3.6
					c1.8,0,3.4,1.4,3.6,3.2C53.2,92.8,53.3,92.9,53.3,93.1z"/>
				<rect id="XMLID_178_" x="51.2" y="62.8" style="fill:#010101;" width="0.9" height="0.5"/>
				<polygon id="XMLID_177_" style="fill:#010101;" points="52.1,58.3 52.1,62.8 51.2,62.8 51.2,58.3 51.6,58.3 				"/>
				<rect id="XMLID_176_" x="51.6" y="57.4" style="fill:#010101;" width="0.5" height="0.9"/>
				<path id="XMLID_175_" style="fill:#010101;" d="M52.1,44.3v4.2h-0.3c-0.2-0.1-0.4-0.1-0.6-0.2v-4.1c0.1,0,0.3,0.1,0.4,0.1
					c0.1,0,0.2,0,0.3,0C52,44.3,52,44.3,52.1,44.3z"/>
				<path id="XMLID_174_" style="fill:#010101;" d="M51.6,44.3c-0.2,0-0.3,0-0.4-0.1v-0.4h0.7h0.2v0.5c-0.1,0-0.2,0-0.2,0
					C51.8,44.3,51.7,44.3,51.6,44.3z"/>
				<path id="XMLID_173_" style="fill:#010101;" d="M51.9,43.4c0.7,0,1.1-0.3,1.5-0.7c0.5-0.4,1-0.9,2.1-0.9c1.1,0,1.6,0.5,2.1,0.9
					c0.4,0.4,0.8,0.7,1.5,0.7c0.7,0,1.1-0.3,1.5-0.7c0.5-0.4,1-0.9,2.1-0.9c0.5,0,1,0.1,1.4,0.3c-0.4-0.2-0.8-0.3-1.3-0.3
					c-1.1,0-1.6,0.5-2.1,0.9c-0.4,0.4-0.8,0.7-1.5,0.7h0v0.9c0,0,0,0-0.1,0c-1.1,0-1.6-0.5-2.1-0.9c-0.4-0.4-0.8-0.7-1.5-0.7
					c-0.7,0-1.1,0.3-1.5,0.7c-0.4,0.4-0.9,0.8-1.9,0.9v-0.5h-0.2V43.4z"/>
				<path id="XMLID_172_" style="fill:#010101;" d="M51.8,48.5l-0.2,0.8c-0.1,0-0.2-0.1-0.3-0.1v-0.9C51.4,48.4,51.6,48.4,51.8,48.5
					z"/>
				<path id="XMLID_171_" style="fill:#010101;" d="M51.2,58.3v-9.2c0.1,0,0.2,0.1,0.3,0.1l0.2-0.8h0.3v8.9h-0.5v0.9H51.2z"/>
				<path id="XMLID_170_" style="fill:#010101;" d="M51.5,36.1L50.6,37l0-0.8c0.1,0,0.2,0,0.7,0l0.1,0
					C51.4,36.1,51.5,36.1,51.5,36.1z"/>
				<polygon id="XMLID_169_" style="fill:#010101;" points="51.2,63.2 51.2,63.7 41.4,63.7 41.4,62.8 51.2,62.8 				"/>
				<path id="XMLID_168_" style="fill:#010101;" d="M51.2,48.3v0.9c-3.1-0.9-6.3-1.4-9.6-1.4c-0.1,0-0.3,0-0.4,0
					c-3.3,0-6.6,0.6-9.7,1.6v-0.9c3.1-1,6.4-1.5,9.7-1.5c0.1,0,0.3,0,0.4,0C44.9,47,48.1,47.4,51.2,48.3z"/>
				<path id="XMLID_167_" style="fill:#010101;" d="M51.3,37.1c0,0-0.1,0-0.1,0v0l-0.5,0l0-0.1l0.9-0.8c1,0,1.5,0.5,2,0.9
					c0.4,0.4,0.8,0.7,1.5,0.7c0.7,0,1.1-0.3,1.5-0.7c0.4-0.4,0.9-0.8,1.8-0.9v0.9h0v0c-0.5,0.1-0.8,0.3-1.2,0.6
					c-0.5,0.4-1,0.9-2.1,0.9c-1.1,0-1.6-0.5-2.1-0.9c-0.4-0.4-0.8-0.7-1.5-0.7L51.3,37.1z"/>
				<path id="XMLID_166_" style="fill:#010101;" d="M50.4,35.9l5.4-5l0.3-0.3l0.3,0.3l-0.6,0.8c0.1,0.1,0.2,0.2,0.3,0.3l-4.6,4.3
					c0,0-0.1,0-0.1,0l-0.1,0c-0.5,0-0.6,0-0.7,0L50.4,35.9z"/>
				<path id="XMLID_165_" style="fill:#010101;" d="M50.6,36.1l0,0.8l-6.7,6.4c-0.3,0-0.7-0.1-1-0.1l-0.1,0.5l-0.3-0.3l7.9-7.4
					L50.6,36.1z"/>
				<path id="XMLID_164_" style="fill:#FBB72F;" d="M49.7,97.6l0,0.5l-3.3,0l-4.9,0v-5h3.7C45.2,95.5,47.2,97.6,49.7,97.6z"/>
				<path id="XMLID_161_" style="fill:#010101;" d="M41.2,14.9c4.7,0,8.5,3.8,8.5,8.6c0,4.7-3.8,8.6-8.5,8.6c-4.7,0-8.6-3.8-8.6-8.6
					C32.6,18.7,36.5,14.9,41.2,14.9z M48.8,23.5c0-4.2-3.4-7.6-7.6-7.6c-4.2,0-7.6,3.4-7.6,7.6c0,4.2,3.4,7.6,7.6,7.6
					C45.4,31.1,48.8,27.7,48.8,23.5z"/>
				<polygon id="XMLID_160_" style="fill:#010101;" points="47.3,98.5 46.4,98.5 46.3,98.1 49.7,98.1 57.9,98.1 57.9,98.1 
					57.9,98.1 57.9,99 57.9,99 47.3,99 47.3,98.6 				"/>
				<rect id="XMLID_159_" x="46.4" y="98.5" style="fill:#010101;" width="0.9" height="0.1"/>
				<path id="XMLID_158_" style="fill:#FBB72F;" d="M41.2,15.8c4.2,0,7.6,3.4,7.6,7.6c0,4.2-3.4,7.6-7.6,7.6c-4.2,0-7.6-3.4-7.6-7.6
					C33.6,19.3,37,15.8,41.2,15.8z"/>
				<polygon id="XMLID_157_" style="fill:#010101;" points="47.3,99 41,99.1 41,99 41,98.6 41.4,98.6 41.4,98.1 46.3,98.1 
					46.4,98.5 46.4,98.6 47.3,98.6 				"/>
				<path id="XMLID_156_" style="fill:#010101;" d="M45.7,92.2h-0.4c0.4-2.1,2.2-3.7,4.4-3.7c1.5,0,2.9,0.8,3.7,2v2.1l-0.2,0
					c-0.2-1.8-1.7-3.2-3.6-3.2c-2,0-3.6,1.6-3.6,3.6h-0.4V92.2z"/>
				<path id="XMLID_155_" style="fill:#010101;" d="M45.7,93.1L45.7,93.1l-0.5,0c0,0,0,0,0,0c0-0.3,0-0.5,0.1-0.8h0.4V93.1z"/>
				<path id="XMLID_154_" style="fill:#010101;" d="M45.4,86.3l0.1,0.8c-0.2,0-0.3,0-0.5,0.1h-3.6v-0.6
					C42.8,86.6,44.1,86.5,45.4,86.3z"/>
				<path id="XMLID_153_" style="fill:#010101;" d="M45.4,86.3L45.4,86.3c-1.3,0.2-2.6,0.3-4,0.3v-0.3H45.4z"/>
				<path id="XMLID_152_" style="fill:#010101;" d="M41.4,92.2h3.8c-0.1,0.3-0.1,0.5-0.1,0.8c0,0,0,0,0,0h-3.7V92.2z"/>
				<path id="XMLID_151_" style="fill:#010101;" d="M41.4,87.2H45c-1.2,0.1-2.4,0.2-3.6,0.2V87.2z"/>
				<path id="XMLID_150_" style="fill:#010101;" d="M43.9,43.3L43.1,44l-0.3-0.3l0.1-0.5C43.2,43.3,43.5,43.3,43.9,43.3z"/>
				<path id="XMLID_149_" style="fill:#010101;" d="M43.1,44l0.7-0.7c0.3,0,0.6,0,0.9,0c0.7,0,1.1-0.3,1.5-0.7
					c0.5-0.4,1-0.9,2.1-0.9c1.1,0,1.6,0.5,2.1,0.9c0.1,0.1,0.1,0.1,0.2,0.2c0.3,0.3,0.6,0.4,1.1,0.5c0.1,0,0.1,0,0.2,0v0.5h-0.7v0.4
					c-0.5-0.1-0.9-0.4-1.2-0.6c-0.1-0.1-0.2-0.1-0.2-0.2c-0.4-0.4-0.8-0.7-1.5-0.7c-0.7,0-1.1,0.3-1.5,0.7c-0.5,0.4-1,0.9-2.1,0.9
					c-0.7,0-1.3-0.1-2-0.2l0.1-0.5L43.1,44z"/>
				<rect id="XMLID_148_" x="41" y="98.1" style="fill:#010101;" width="0.4" height="0.5"/>
				<polygon id="XMLID_147_" style="fill:#010101;" points="41.4,93.1 41.4,98.1 41,98.1 41,98 40.7,98 40.7,98.1 40.5,98.1 
					40.5,93.1 40.7,93.1 40.7,93.1 				"/>
				<rect id="XMLID_146_" x="40.7" y="92.2" style="fill:#010101;" width="0.7" height="0.8"/>
				<path id="XMLID_145_" style="fill:#010101;" d="M41.4,87.2v0.2c-0.1,0-0.2,0-0.3,0c0,0-0.1,0-0.1,0l0-0.2H41.4z"/>
				<path id="XMLID_144_" style="fill:#010101;" d="M41.4,86.6v0.6H41l0-0.6c0,0,0.1,0,0.1,0C41.2,86.6,41.3,86.6,41.4,86.6z"/>
				<rect id="XMLID_143_" x="40.7" y="68.2" style="fill:#010101;" width="0.7" height="0.9"/>
				<path id="XMLID_142_" style="fill:#1E9045;" d="M41.4,62.8h-0.9h-9v-4.2V53v-3.7c3.1-1,6.4-1.5,9.7-1.6c0.1,0,0.3,0,0.4,0
					c3.2,0,6.5,0.5,9.6,1.4v9.2v4.4H41.4z"/>
				<rect id="XMLID_141_" x="40.7" y="98.6" style="fill:#010101;" width="0.3" height="0.4"/>
				<rect id="XMLID_140_" x="40.7" y="98.1" style="fill:#010101;" width="0.3" height="0.5"/>
				<rect id="XMLID_139_" x="40.7" y="98" style="fill:#010101;" width="0.3" height="0.1"/>
				<path id="XMLID_138_" style="fill:#010101;" d="M40.7,86.3h0.7v0.3c-0.1,0-0.2,0-0.3,0c0,0-0.1,0-0.1,0l0,0.6h-0.2V86.3z"/>
				<polygon id="XMLID_137_" style="fill:#010101;" points="40.5,62.8 41.4,62.8 41.4,63.7 40.5,63.7 40.5,62.9 				"/>
				<path id="XMLID_136_" style="fill:#010101;" d="M40.9,87.4c0.1,0,0.1,0,0.1,0c0.1,0,0.2,0,0.3,0v4.8h-0.7v-0.1h-0.2v-5h0.2H41
					L40.9,87.4z"/>
				<polygon id="XMLID_135_" style="fill:#010101;" points="40.7,86.3 40.7,87.2 40.5,87.2 40.5,69.1 40.7,69.1 41.4,69.1 
					41.4,86.3 				"/>
				<polygon id="XMLID_134_" style="fill:#010101;" points="40.7,68.2 40.7,69.1 40.5,69.1 40.5,63.7 41.4,63.7 41.4,68.2 				"/>
				<rect id="XMLID_133_" x="40.5" y="98.1" style="fill:#010101;" width="0.2" height="0.5"/>
				<rect id="XMLID_132_" x="40.5" y="93.1" style="fill:#010101;" width="0.2" height="0.1"/>
				<rect id="XMLID_131_" x="40.5" y="92.2" style="fill:#010101;" width="0.2" height="0.8"/>
				<rect id="XMLID_130_" x="40.5" y="92.2" style="fill:#010101;" width="0.2" height="0.1"/>
				<polygon id="XMLID_129_" style="fill:#010101;" points="41,99.1 34.7,99.1 34.7,98.1 34.7,98.1 40.5,98.1 40.5,98.6 40.7,98.6 
					40.7,99 41,99 				"/>
				<polygon id="XMLID_128_" style="fill:#FFFFFF;" points="40.5,93.1 40.5,98.1 34.7,98.1 20.5,98.2 20.5,93.1 				"/>
				<rect id="XMLID_127_" x="20.5" y="93.1" style="fill:#010101;" width="20" height="0.1"/>
				<rect id="XMLID_126_" x="20.5" y="92.2" style="fill:#010101;" width="20" height="0.8"/>
				<rect id="XMLID_125_" x="20.5" y="92.2" style="fill:#010101;" width="20" height="0.1"/>
				<polygon id="XMLID_124_" style="fill:#010101;" points="40.5,62.9 40.5,63.7 31,63.7 31,63.2 31.5,63.2 31.5,62.8 40.5,62.8 
									"/>
				<path id="XMLID_123_" style="fill:#010101;" d="M40.2,43.3l-0.3,0.3l-0.1-0.5c-0.3,0.1-0.6,0.1-1,0.1L32,37l0-0.8l0.2-0.2
					L40.2,43.3z"/>
				<path id="XMLID_122_" style="fill:#010101;" d="M39.8,43.2l0.1,0.5L39.5,44l-0.7-0.7C39.1,43.3,39.4,43.3,39.8,43.2z"/>
				<polygon id="XMLID_121_" style="fill:#010101;" points="34.7,98.1 34.7,99.1 34.7,98.1 				"/>
				<path id="XMLID_120_" style="fill:#010101;" d="M31.4,37.1l-0.1,0c-0.7,0-1.1,0.3-1.5,0.7c-0.5,0.4-1,0.9-2.1,0.9
					c-1.1,0-1.6-0.5-2.1-0.9c-0.4-0.3-0.7-0.6-1.2-0.6v0l0-0.9c0.9,0.1,1.4,0.5,1.8,0.9c0.4,0.4,0.8,0.7,1.5,0.7
					c0.7,0,1.1-0.3,1.5-0.7c0.4-0.4,1-0.9,2-0.9L32,37l0,0.1l-0.5,0v0C31.5,37.1,31.4,37.1,31.4,37.1z"/>
				<path id="XMLID_119_" style="fill:#E21F26;" d="M29.8,37.7c0.4-0.4,0.8-0.7,1.5-0.7l0.1,0c0,0,0.1,0,0.1,0v0l0.5,0l0-0.1
					l6.7,6.4c-0.3,0-0.6,0-0.9,0c-0.7,0-1.1-0.3-1.5-0.7c-0.5-0.4-1-0.9-2.1-0.9c-1.1,0-1.6,0.5-2.1,0.9c-0.1,0.1-0.1,0.1-0.2,0.2
					c-0.3,0.3-0.6,0.4-1.1,0.5c-0.1,0-0.1,0-0.2,0c-0.7,0-1.1-0.3-1.5-0.7c-0.5-0.4-1-0.9-2.1-0.9c-1.1,0-1.6,0.5-2.1,0.9
					c-0.4,0.4-0.8,0.7-1.5,0.7c-0.7,0-1.1-0.3-1.5-0.7c-0.5-0.4-1-0.9-2.1-0.9c-0.5,0-0.9,0.1-1.2,0.3c0,0,0,0,0,0
					c0,0-0.1,0-0.1,0.1l0,0c0,0,0,0,0,0l-0.2,0.1v0v0c-0.2,0.1-0.4,0.3-0.6,0.5c-0.4,0.4-0.8,0.7-1.5,0.7c-0.7,0-1.1-0.3-1.5-0.7
					c-0.5-0.4-1-0.9-2.1-0.9c-0.7,0-2,0.5-3,1c0.2-1.8,0.5-3.5,0.9-5.2c0-0.1,0-0.2,0.1-0.3c0.2,0.1,0.3,0.2,0.5,0.4
					c0.5,0.4,1,0.9,2.1,0.9s1.6-0.5,2.1-0.9c0.4-0.4,0.8-0.7,1.5-0.7c0.7,0,1,0.3,1.5,0.7c0.5,0.4,1,0.9,2.1,0.9
					c1.1,0,1.6-0.5,2.1-0.9c0.4-0.4,0.8-0.7,1.5-0.7c0.1,0,0.2,0,0.3,0c0.5,0.1,0.8,0.3,1.2,0.6c0.5,0.4,1,0.9,2.1,0.9
					C28.7,38.6,29.3,38.1,29.8,37.7z"/>
				<rect id="XMLID_118_" x="31" y="62.8" style="fill:#010101;" width="0.5" height="0.5"/>
				<polygon id="XMLID_117_" style="fill:#010101;" points="31.5,58.6 31.5,62.8 31,62.8 31,63.2 30.5,63.2 30.5,59.5 31.1,59.5 
					31.1,58.6 				"/>
				<polygon id="XMLID_116_" style="fill:#010101;" points="31.5,53 31.5,58.6 31.1,58.6 30.5,58.6 30.5,54 31,54 31,53 				"/>
				<path id="XMLID_115_" style="fill:#010101;" d="M31.5,49.3V53H31h-0.5v-4.4h0.3l0.3,0.8C31.2,49.4,31.4,49.4,31.5,49.3z"/>
				<path id="XMLID_114_" style="fill:#010101;" d="M31.5,48.5v0.9c-0.1,0-0.2,0.1-0.3,0.1l-0.3-0.8C31.1,48.6,31.3,48.6,31.5,48.5z
					"/>
				<path id="XMLID_113_" style="fill:#010101;" d="M31.5,44.2v4.3c-0.2,0.1-0.4,0.1-0.6,0.2h-0.3v-4.4c0.1,0,0.2,0,0.2,0
					c0.1,0,0.2,0,0.3,0C31.2,44.3,31.3,44.2,31.5,44.2z"/>
				<path id="XMLID_112_" style="fill:#010101;" d="M32,37l-0.9-0.8c0,0,0.1,0,0.1,0l0.1,0c0.5,0,0.6,0,0.7,0L32,37z"/>
				<path id="XMLID_111_" style="fill:#E21F26;" d="M26.6,31.8l4.6,4.3c-1,0-1.5,0.5-2,0.9c-0.4,0.4-0.8,0.7-1.5,0.7
					c-0.7,0-1.1-0.3-1.5-0.7c-0.4-0.4-0.9-0.8-1.8-0.9c-0.1,0-0.2,0-0.3,0c-1.1,0-1.6,0.5-2.1,0.9c-0.4,0.4-0.8,0.7-1.5,0.7
					c-0.7,0-1.1-0.3-1.5-0.7c-0.5-0.4-1-0.9-2.1-0.9c-1.1,0-1.6,0.5-2.1,0.9c-0.4,0.4-0.8,0.7-1.5,0.7c-0.7,0-1.1-0.3-1.5-0.7
					c-0.2-0.2-0.4-0.3-0.6-0.5l-0.5,0.8c0.4-1.5,0.9-3,1.5-4.4c0.1,0,0.1,0,0.2,0c1,0,1.5-0.5,1.9-0.9c0.4-0.4,0.6-0.6,1.2-0.6
					c0.2,0,0.4,0,0.5,0.1l0,0c0.2,0.1,0.4,0.3,0.6,0.5c0.4,0.4,0.9,0.9,1.8,0.9c1,0,1.5-0.5,1.9-0.9c0.4-0.4,0.6-0.6,1.2-0.6
					c0.6,0,0.8,0.3,1.2,0.6c0.4,0.4,0.9,0.9,1.8,0.9c1,0,1.5-0.5,1.9-0.9C26.5,31.9,26.5,31.9,26.6,31.8z"/>
				<rect id="XMLID_110_" x="30.5" y="58.6" style="fill:#010101;" width="0.5" height="0.9"/>
				<path id="XMLID_109_" style="fill:#010101;" d="M30.5,44.3v-0.5h0.2h0.7v0.4c-0.1,0-0.3,0.1-0.4,0.1c-0.1,0-0.2,0-0.3,0
					C30.7,44.3,30.6,44.3,30.5,44.3z"/>
				<rect id="XMLID_108_" x="30.5" y="53" style="fill:#010101;" width="0.5" height="0.9"/>
				<path id="XMLID_107_" style="fill:#010101;" d="M31,43.3c0.5,0,0.8-0.2,1.1-0.5c0.1-0.1,0.1-0.1,0.2-0.2c0.5-0.4,1-0.9,2.1-0.9
					c1.1,0,1.6,0.5,2.1,0.9c0.4,0.4,0.8,0.7,1.5,0.7c0.3,0,0.6,0,0.9,0l0.7,0.7l0.3-0.3l0.1,0.5c-0.6,0.1-1.3,0.2-2,0.2
					c-1.1,0-1.6-0.5-2.1-0.9c-0.4-0.4-0.8-0.7-1.5-0.7c-0.7,0-1.1,0.3-1.5,0.7c-0.1,0.1-0.1,0.1-0.2,0.2c-0.3,0.2-0.7,0.5-1.2,0.6
					v-0.4h-0.7v-0.5C30.8,43.4,30.9,43.3,31,43.3z"/>
				<polygon id="XMLID_106_" style="fill:#1572B2;" points="30.5,54 30.5,58.6 20.1,58.6 16.7,58.6 16.7,54 				"/>
				<rect id="XMLID_105_" x="16.7" y="53" style="fill:#010101;" width="13.9" height="0.9"/>
				<path id="XMLID_104_" style="fill:#48A347;" d="M20.1,59.8c1.5,1.1,8.6,7.1,8.5,15c-5.3,1.9-7.4,5.4-8.1,8.1V63.6h-0.9v25.3
					c-2.8-1.3-6-4.3-6.5-11.3c0-0.3,0.1-4.5,1.4-9c0-0.1,0-0.1,0-0.1l0-0.1C15.8,64.5,17.7,61.6,20.1,59.8z"/>
				<path id="XMLID_103_" style="fill:#010101;" d="M26.9,30.9l5.4,5l-0.2,0.2c-0.1,0-0.2,0-0.7,0l-0.1,0c0,0-0.1,0-0.1,0l-4.6-4.3
					c0.1-0.1,0.2-0.2,0.3-0.3l-0.6-0.8l0.3-0.3L26.9,30.9z"/>
				<path id="XMLID_102_" style="fill:#010101;" d="M26.3,30.8l0.6,0.8c-0.1,0.1-0.2,0.2-0.3,0.3l-0.3-0.3l-0.4-0.4
					C26,31.1,26.2,30.9,26.3,30.8z"/>
				<path id="XMLID_101_" style="fill:#010101;" d="M26.6,30.5l-0.3,0.3c-0.2,0.1-0.3,0.2-0.4,0.4l-3.5-3.5h-7.5
					c0-0.1,0.1-0.2,0.1-0.2c0.2-0.2,0.3-0.5,0.5-0.7h7.2L26.6,30.5z"/>
				<path id="XMLID_100_" style="fill:#E21F26;" d="M22.4,27.7l3.5,3.5c-0.1,0.1-0.1,0.1-0.2,0.2c-0.4,0.4-0.6,0.6-1.2,0.6
					c-0.6,0-0.8-0.3-1.2-0.6c-0.4-0.4-0.9-0.9-1.8-0.9c-1,0-1.5,0.5-1.9,0.9c-0.4,0.4-0.6,0.6-1.2,0.6c-0.6,0-0.8-0.3-1.2-0.6
					c-0.3-0.3-0.5-0.6-0.9-0.7l-0.1,0h0c-0.2-0.1-0.5-0.1-0.8-0.1c-1,0-1.5,0.5-1.8,0.9c-0.3,0.3-0.6,0.6-1,0.6
					c0.6-1.5,1.4-2.9,2.2-4.3H22.4z"/>
				<path id="XMLID_99_" style="fill:#010101;" d="M25.3,116.8c-0.2,0.1-0.4,0.3-0.5,0.4l-0.5-0.8c0.1-0.1,0.2-0.1,0.3-0.2
					C24.7,116.5,25,116.7,25.3,116.8z"/>
				<polygon id="XMLID_98_" style="fill:#010101;" points="24.4,36.1 24.4,37.1 24.4,37.1 				"/>
				<path id="XMLID_97_" style="fill:#010101;" d="M24.1,37.1c-0.7,0-1.1,0.3-1.5,0.7c-0.5,0.4-1,0.9-2.1,0.9
					c-1.1,0-1.6-0.5-2.1-0.9c-0.4-0.4-0.8-0.7-1.5-0.7c-0.7,0-1.1,0.3-1.5,0.7c-0.5,0.4-1,0.9-2.1,0.9s-1.6-0.5-2.1-0.9
					c-0.2-0.1-0.3-0.3-0.5-0.4c0,0,0,0,0,0l0.5-0.8c0.2,0.1,0.4,0.3,0.6,0.5c0.4,0.4,0.8,0.7,1.5,0.7c0.7,0,1.1-0.3,1.5-0.7
					c0.5-0.4,1-0.9,2.1-0.9c1.1,0,1.6,0.5,2.1,0.9c0.4,0.4,0.8,0.7,1.5,0.7c0.7,0,1.1-0.3,1.5-0.7c0.5-0.4,1-0.9,2.1-0.9
					c0.1,0,0.2,0,0.3,0v0.9h0v0C24.3,37.1,24.2,37.1,24.1,37.1z"/>
				<path id="XMLID_96_" style="fill:#FFFFFF;" d="M23.6,44.3C23.6,44.3,23.6,44.3,23.6,44.3c1.1,0,1.7-0.5,2.2-0.9
					c0.4-0.4,0.8-0.7,1.5-0.7c0.7,0,1.1,0.3,1.5,0.7c0.4,0.4,0.9,0.8,1.9,0.9v4.4V53H16.7v-6.5H9.5c0-0.9,0-1.7,0.1-2.6
					c1-0.5,2.6-1.2,3.1-1.2c0.7,0,1.1,0.3,1.5,0.7c0.5,0.4,1,0.9,2.1,0.9c0.7,0,1.2-0.2,1.6-0.5l0,0c0.2-0.1,0.4-0.3,0.6-0.5
					c0.2-0.1,0.3-0.3,0.5-0.4h0l0.3,0v-0.2c0.2-0.1,0.4-0.1,0.6-0.1c0.7,0,1,0.3,1.5,0.7C21.9,43.8,22.4,44.4,23.6,44.3L23.6,44.3
					L23.6,44.3z"/>
				<path id="XMLID_95_" style="fill:#010101;" d="M23.6,43.4v0.9c-1,0-1.6-0.5-2-0.9c-0.4-0.4-0.8-0.7-1.5-0.7
					c-0.3,0-0.5,0-0.7,0.1v0V43L19,43h0c-0.2,0.1-0.4,0.3-0.6,0.4c-0.2,0.1-0.3,0.3-0.5,0.4l-0.5-0.8c0.2-0.1,0.3-0.2,0.5-0.4
					c0.2-0.1,0.3-0.3,0.5-0.4v0v0l0.2-0.1c0,0,0,0,0,0l0,0l0,0c0,0,0.1,0,0.1,0l0,0c0,0,0,0,0,0c0.4-0.2,0.7-0.2,1.1-0.2
					c1.1,0,1.6,0.5,2.1,0.9C22.5,43.1,22.8,43.4,23.6,43.4L23.6,43.4z"/>
				<path id="XMLID_94_" style="fill:#010101;" d="M32,78.6L21.2,89.2v-0.6l0-0.1c0,0,0-0.2-0.1-0.5l10.3-10L32,78.6z"/>
				<path id="XMLID_93_" style="fill:#48A347;" d="M21.2,89.5v-0.3L32,78.6l-0.7-0.7L21.1,88c-0.1-0.9-0.2-2.6,0.3-4.6
					c1-3.7,3.6-6.3,7.9-7.7h0c2-0.7,4.4-1.1,7.1-1.3c0,0.1,0,0.3,0,0.4c-0.1,1.2-0.3,2.3-0.6,3.4c-1.3,5.7-4.6,12.4-12.9,11.6l0,0
					C22.8,89.8,22.1,89.8,21.2,89.5z"/>
				<path id="XMLID_92_" style="fill:#010101;" d="M21.3,59.5h-1.2H19c0.3-0.2,0.6-0.5,0.9-0.7l0.3-0.2l0.3,0.2
					C20.5,58.9,20.8,59.1,21.3,59.5z"/>
				<path id="XMLID_91_" style="fill:#010101;" d="M22,42.7c-0.5-0.4-1-0.9-2.1-0.9c-0.4,0-0.8,0.1-1.1,0.2c0.4-0.2,0.8-0.3,1.2-0.3
					C21.1,41.8,21.7,42.3,22,42.7c0.5,0.3,0.9,0.6,1.6,0.6c0.7,0,1.1-0.3,1.5-0.7c0.5-0.4,1-0.9,2.1-0.9c1.1,0,1.6,0.5,2.1,0.9
					c0.4,0.4,0.8,0.7,1.5,0.7v0.5h-0.2v0.5c-0.9-0.1-1.4-0.5-1.9-0.9c-0.4-0.4-0.8-0.7-1.5-0.7c-0.7,0-1.1,0.3-1.5,0.7
					c-0.5,0.4-1,0.9-2.1,0.9c0,0,0,0-0.1,0v-0.9h0C22.8,43.4,22.5,43.1,22,42.7z"/>
				<path id="XMLID_90_" style="fill:#010101;" d="M21.2,89.2v0.3c0.9,0.2,1.6,0.3,1.6,0.3l0,0c8.3,0.8,11.6-5.9,12.9-11.6
					c0.3-1.1,0.4-2.3,0.6-3.4c0-0.2,0-0.3,0-0.4c-2.7,0.2-5.1,0.6-7.1,1.3h0c-4.3,1.5-6.9,4.1-7.9,7.7c-0.5,2-0.4,3.8-0.3,4.6
					l-0.6,0.6v-5.6c0.8-2.7,2.8-6.1,8.1-8.1c0.1-7.9-7.1-13.9-8.5-15v-0.3h1.2c2.3,1.9,8.2,7.5,8.3,15c2.1-0.6,4.5-1,7.2-1.1l0.5,0
					l0,0.5c0,0,0,0.4-0.1,1c-0.1,1.2-0.3,2.4-0.6,3.5c-1.1,4.7-4.1,12.4-12.5,12.4c-0.5,0-0.9,0-1.4-0.1c-0.1,0-0.7,0-1.6-0.2v0
					l-0.6-0.2c0,0,0,0,0,0c0,0,0,0-0.1,0v-1.5l0.5,0.5L21.2,89.2z"/>
				<path id="XMLID_89_" style="fill:#010101;" d="M21.2,88.6v0.6l-0.1,0.1l-0.5-0.5v-0.3l0.6-0.6C21.1,88.3,21.2,88.5,21.2,88.6
					L21.2,88.6z"/>
				<path id="XMLID_88_" style="fill:#8FC13F;" d="M20.6,90.3l0.6,0.2v0c0.8,0.2,1.4,0.2,1.6,0.2c0.5,0,1,0.1,1.4,0.1
					c8.4,0,11.4-7.7,12.5-12.4c0.3-1.2,0.5-2.3,0.6-3.5c0.1-0.6,0.1-1,0.1-1l0-0.5l-0.5,0c-2.7,0.1-5.2,0.5-7.2,1.1
					c-0.1-7.5-6-13.1-8.3-15h9.3v3.7H31v0.5h9.5v5.4v18.1v5h-20v-1.9C20.5,90.3,20.6,90.3,20.6,90.3C20.6,90.3,20.6,90.3,20.6,90.3z
					"/>
				<rect id="XMLID_87_" x="19.6" y="98.2" style="fill:#010101;" width="0.9" height="0.1"/>
				<rect id="XMLID_86_" x="19.6" y="93.1" style="fill:#010101;" width="0.9" height="5"/>
				<rect id="XMLID_85_" x="19.6" y="93.1" style="fill:#010101;" width="0.9" height="0.1"/>
				<rect id="XMLID_84_" x="19.6" y="92.2" style="fill:#010101;" width="0.9" height="0.8"/>
				<rect id="XMLID_83_" x="19.6" y="92.2" style="fill:#010101;" width="0.9" height="0.1"/>
				<path id="XMLID_82_" style="fill:#010101;" d="M20.5,90.3v1.9h-0.9V90c0.1,0,0.2,0.1,0.3,0.1C20.1,90.2,20.3,90.2,20.5,90.3z"/>
				<path id="XMLID_81_" style="fill:#010101;" d="M20.5,88.8v1.5c-0.2-0.1-0.4-0.1-0.6-0.2c-0.1,0-0.2-0.1-0.3-0.1v-1
					c0.2,0.1,0.4,0.2,0.6,0.3c0,0,0,0,0,0v-0.5l0.1,0L20.5,88.8z"/>
				<polygon id="XMLID_80_" style="fill:#010101;" points="20.5,88.5 20.5,88.8 20.4,88.7 				"/>
				<path id="XMLID_79_" style="fill:#010101;" d="M20.5,82.9v5.6l-0.1,0.1l-0.1,0c-0.1-0.4-0.5-2.7,0.2-5.5
					C20.5,83.1,20.5,83,20.5,82.9z"/>
				<path id="XMLID_78_" style="fill:#010101;" d="M20.1,58.6h10.4v0.9h-9.3c-0.5-0.4-0.8-0.6-0.9-0.7L20.1,58.6L20.1,58.6z"/>
				<path id="XMLID_77_" style="fill:#010101;" d="M19.6,88.9V63.6h0.9v19.3c0,0.1,0,0.2-0.1,0.2c-0.7,2.8-0.3,5.1-0.2,5.5v0.5
					c0,0,0,0,0,0C20,89.1,19.8,89,19.6,88.9z"/>
				<path id="XMLID_76_" style="fill:#010101;" d="M20.1,59.5v0.3c-2.5,1.7-4.3,4.6-5.5,8.6l0,0.1c0,0,0,0.1,0,0.1
					c-1.3,4.5-1.4,8.7-1.4,9c0.5,7,3.7,10,6.5,11.3v1c-2.7-1.1-6.8-4.1-7.4-12.3v0c0-0.2,0-4.5,1.4-9.2c0,0,0-0.1,0-0.2l0-0.1
					c1.2-3.8,3-6.7,5.3-8.6H20.1z"/>
				<path id="XMLID_75_" style="fill:#010101;" d="M20,42.7c0.7,0,1.1,0.3,1.5,0.7c0.4,0.4,1,0.9,2,0.9v0.1h0
					c-1.1,0-1.6-0.5-2.1-0.9C21,43.1,20.7,42.8,20,42.7c-0.3,0.1-0.5,0.1-0.7,0.1v0C19.6,42.8,19.8,42.7,20,42.7z"/>
				<path id="XMLID_74_" style="fill:#010101;" d="M19.9,58.9c-0.3,0.2-0.6,0.4-0.9,0.7h-2.3v-0.9h3.5v0.1L19.9,58.9z"/>
				<path id="XMLID_73_" style="fill:#010101;" d="M19.6,93.1L19.6,93.1L10,93.1c0,0,0,0,0-0.1H19.6z"/>
				<path id="XMLID_72_" style="fill:#010101;" d="M19.6,92.2L19.6,92.2l-9.7,0.1c0,0,0,0,0-0.1H19.6z"/>
				<path id="XMLID_71_" style="fill:#8FC13F;" d="M19.6,90v2.2H9.9c0-0.1,0-0.1,0-0.2c-0.1-0.6-0.1-1.2-0.2-1.7c0-0.1,0-0.3,0-0.4
					l0-0.1c0,0,0-0.1,0-0.1l0,0c0-0.1,0-0.3,0-0.4l0-0.1c0-0.2,0-0.3,0-0.5l0,0c0,0,0,0,0,0v0c0-0.1,0-0.3,0-0.4c0-0.2,0-0.4,0-0.5
					v0c0-0.2,0-0.4,0-0.7V63.2v-3.7h7.2H19c-2.3,1.9-4.1,4.8-5.3,8.6l0,0.1c0,0.1,0,0.1,0,0.2c-1.4,4.7-1.4,9.1-1.4,9.2v0
					C12.7,85.8,16.9,88.8,19.6,90z"/>
				<path id="XMLID_70_" style="fill:#010101;" d="M18.8,42.1L18.8,42.1C18.7,42.1,18.7,42.1,18.8,42.1l-0.1,0.1
					C18.7,42.1,18.7,42.1,18.8,42.1z"/>
				<path id="XMLID_69_" style="fill:#010101;" d="M19,43c-0.2,0.1-0.3,0.2-0.5,0.4c-0.2,0.2-0.4,0.3-0.6,0.5l0,0
					c0.2-0.1,0.3-0.3,0.5-0.4C18.6,43.3,18.8,43.1,19,43z"/>
				<polygon id="XMLID_68_" style="fill:#010101;" points="18.7,42.1 18.6,42.1 18.7,42.1 				"/>
				<path id="XMLID_67_" style="fill:#010101;" d="M18.6,42.1C18.6,42.1,18.6,42.2,18.6,42.1l-0.2,0.1v0L18.6,42.1z"/>
				<path id="XMLID_66_" style="fill:#010101;" d="M17.9,42.7c-0.2,0.1-0.3,0.3-0.5,0.4l0.5,0.8c-0.4,0.3-0.9,0.5-1.6,0.5
					c-1.1,0-1.6-0.5-2.1-0.9c-0.4-0.4-0.8-0.7-1.5-0.7c-0.5,0-2.1,0.6-3.1,1.2c0-0.1,0-0.2,0-0.2c0-0.3,0.1-0.6,0.1-0.9
					c1-0.5,2.4-1,3-1c1.1,0,1.6,0.5,2.1,0.9c0.4,0.4,0.8,0.7,1.5,0.7C17.1,43.4,17.4,43.1,17.9,42.7c0.1-0.1,0.3-0.3,0.5-0.4v0
					C18.2,42.4,18.1,42.6,17.9,42.7z"/>
				<path id="XMLID_65_" style="fill:#010101;" d="M16.7,59.5H9.5v-0.9h6.1c-0.1,0.1-0.1,0.1-0.2,0.2l0.6,0.6
					c0.2-0.2,0.3-0.3,0.5-0.5l-0.2-0.2h0.4V59.5z"/>
				<path id="XMLID_64_" style="fill:#010101;" d="M16.7,54v4.6h-0.4l-0.4-0.3c-0.1,0.1-0.1,0.1-0.2,0.2V54h0.5H16.7z"/>
				<rect id="XMLID_63_" x="16.2" y="53" style="fill:#010101;" width="0.5" height="0.9"/>
				<path id="XMLID_62_" style="fill:#010101;" d="M16.3,58.6l0.2,0.2c-0.2,0.2-0.3,0.3-0.5,0.5l-0.6-0.6c0.1-0.1,0.1-0.1,0.2-0.2
					h0.1H16.3z"/>
				<path id="XMLID_61_" style="fill:#010101;" d="M16.3,58.6h-0.5v-0.2c0.1-0.1,0.1-0.1,0.2-0.2L16.3,58.6z"/>
				<path id="XMLID_60_" style="fill:#010101;" d="M15.7,54v-6.5H9.5V47c0-0.2,0-0.3,0-0.5h7.1V53h-0.5V54H15.7z"/>
				<path id="XMLID_59_" style="fill:#010101;" d="M15.7,58.4v0.2h-0.1C15.6,58.5,15.7,58.5,15.7,58.4z"/>
				<path id="XMLID_58_" style="fill:#FAFAFA;" d="M15.7,54v4.4c-0.1,0.1-0.1,0.1-0.1,0.2H9.5V47.5h6.2V54z"/>
				<path id="XMLID_57_" style="fill:#010101;" d="M14.4,26.8h1.1c-0.2,0.2-0.3,0.5-0.5,0.7c0,0.1-0.1,0.2-0.1,0.2h-0.6v-0.8
					C14.3,26.9,14.4,26.8,14.4,26.8z"/>
				<path id="XMLID_56_" style="fill:#010101;" d="M14.4,26.8c0,0.1-0.1,0.1-0.1,0.2L14.4,26.8L14.4,26.8z"/>
				<path id="XMLID_55_" style="fill:#010101;" d="M13.3,103.3c0,0.1,0.1,0.1,0.1,0.2c-0.3-0.1-0.6-0.1-1-0.1v-0.9
					c0.2,0,0.3,0,0.5,0C13,102.7,13.1,103,13.3,103.3z"/>
				<path id="XMLID_54_" style="fill:#010101;" d="M12.4,103.7c0-0.1-0.1-0.2-0.1-0.3l0.1-0.1c0.3,0,0.7,0,1,0.1
					c0.4,0.8,0.8,1.6,1.3,2.3c0.5,0.8,1.1,1.7,1.6,2.5c0.6,0.9,1.3,1.7,2,2.5c0.2,0.2,0.4,0.5,0.6,0.7c0.8,0.9,1.7,1.8,2.6,2.6
					c0.9,0.8,1.9,1.6,2.9,2.3c-0.1,0.1-0.2,0.1-0.3,0.2l0.5,0.8l-0.2,0.2c-1.3-0.8-2.5-1.7-3.6-2.8c-0.9-0.8-1.9-1.7-2.7-2.7
					c-0.2-0.2-0.4-0.5-0.7-0.7c-0.7-0.8-1.4-1.7-2-2.6c-0.6-0.8-1.2-1.7-1.7-2.6C13.3,105.4,12.9,104.5,12.4,103.7z"/>
				<path id="XMLID_53_" style="fill:#010101;" d="M12.5,32.9c-0.1,0-0.1,0-0.2,0c0,0,0,0,0,0l0,0l-0.4-0.2l0.4,0.1
					c0-0.1,0.1-0.2,0.1-0.3c0.1-0.2,0.2-0.4,0.3-0.6c0.4-0.1,0.7-0.3,1-0.6c0.4-0.4,0.9-0.9,1.8-0.9c0.3,0,0.6,0,0.8,0.1h0l0.1,0
					c0.4,0.2,0.7,0.5,0.9,0.7c0.4,0.4,0.6,0.6,1.2,0.6c0.6,0,0.8-0.3,1.2-0.6c0.4-0.4,0.9-0.9,1.9-0.9c1,0,1.5,0.5,1.8,0.9
					c0.4,0.4,0.6,0.6,1.2,0.6c0.6,0,0.8-0.3,1.2-0.6c0-0.1,0.1-0.1,0.2-0.2l0.4,0.4l0.3,0.3c-0.1,0-0.1,0.1-0.2,0.2
					c-0.4,0.4-0.9,0.9-1.9,0.9c-1,0-1.5-0.5-1.8-0.9c-0.4-0.4-0.6-0.6-1.2-0.6c-0.6,0-0.8,0.3-1.2,0.6c-0.4,0.4-0.9,0.9-1.9,0.9
					c-1,0-1.5-0.5-1.8-0.9c-0.2-0.2-0.4-0.4-0.6-0.5l0,0c-0.2-0.1-0.3-0.1-0.5-0.1c-0.6,0-0.8,0.3-1.2,0.6
					C13.9,32.4,13.4,32.9,12.5,32.9z"/>
				<path id="XMLID_52_" style="fill:#010101;" d="M12.4,102.4v0.9l-0.1,0.1c-0.4-0.7-0.7-1.5-1-2.3c-0.3-0.6-0.5-1.3-0.7-1.9
					l0.3-0.1l0.7,0c0.2,0.5,0.4,1.1,0.6,1.6c0.2,0.6,0.5,1.1,0.7,1.6C12.7,102.4,12.6,102.4,12.4,102.4z"/>
				<path id="XMLID_51_" style="fill:#010101;" d="M12.3,32.9L12.3,32.9C12.3,32.9,12.3,32.9,12.3,32.9c-0.2,0-0.3,0-0.4,0l0-0.1
					L12.3,32.9z"/>
				<path id="XMLID_50_" style="fill:#010101;" d="M12.1,31.9l-0.2,0.8l0,0l-0.4-0.2l0,0c0-0.1,0.1-0.2,0.1-0.3
					c0.8-1.8,1.7-3.5,2.7-5.2c0,0,0,0,0-0.1v0.8h0.6c-0.8,1.4-1.6,2.8-2.2,4.3c-0.1,0-0.1,0-0.2,0C12.3,32,12.2,32,12.1,31.9z"/>
				<path id="XMLID_49_" style="fill:#010101;" d="M12.4,32.6c0,0.1-0.1,0.2-0.1,0.3l-0.4-0.1v0l0.2-0.8c0.1,0,0.2,0,0.4,0
					c0.1,0,0.1,0,0.2,0C12.6,32.2,12.5,32.4,12.4,32.6z"/>
				<polygon id="XMLID_48_" style="fill:#010101;" points="11.9,32.7 11.9,32.7 11.9,32.7 				"/>
				<path id="XMLID_47_" style="fill:#010101;" d="M9.8,37.4c0.4-1.7,1-3.3,1.6-4.9l0.4,0.2l0,0l0,0.1c0.1,0,0.3,0.1,0.4,0.1
					c-0.6,1.4-1.1,2.9-1.5,4.4l0,0c0,0,0,0,0,0c0,0.1-0.1,0.2-0.1,0.3c-0.4,1.7-0.8,3.4-0.9,5.2C9.4,43,9.2,43.1,9,43.3
					c-0.1,0-0.2,0.1-0.2,0.1C8.9,41.4,9.3,39.3,9.8,37.4z"/>
				<path id="XMLID_46_" style="fill:#010101;" d="M11.3,98.2l8.3,0v0.1h0.9v-0.1l14.2,0v0h0l0,0.9l-23.2,0.1
					c-0.1-0.2-0.1-0.4-0.2-0.6l0,0C11.3,98.4,11.3,98.4,11.3,98.2C11.3,98.3,11.3,98.2,11.3,98.2z"/>
				<path id="XMLID_45_" style="fill:#010101;" d="M11.4,98.5c0.1,0.2,0.1,0.4,0.2,0.6l-0.7,0l0-0.9l0.3,0c0,0,0,0.1,0,0.1
					C11.3,98.4,11.3,98.4,11.4,98.5L11.4,98.5z"/>
				<path id="XMLID_44_" style="fill:#010101;" d="M10.8,37.3C10.8,37.3,10.8,37.3,10.8,37.3C10.8,37.4,10.8,37.4,10.8,37.3
					L10.8,37.3z"/>
				<path id="XMLID_43_" style="fill:#FFFFFF;" d="M10,93.1h9.5v5l-8.3,0c-0.1-0.4-0.2-0.8-0.3-1.1c-0.1-0.2-0.1-0.4-0.2-0.6
					c-0.1-0.2-0.1-0.4-0.2-0.6l0-0.2c0-0.1-0.1-0.2-0.1-0.4c0-0.2-0.1-0.4-0.1-0.6c0-0.2-0.1-0.4-0.1-0.6l0-0.1
					c0-0.2-0.1-0.4-0.1-0.6l0,0C10.1,93.3,10.1,93.2,10,93.1z"/>
				<path id="XMLID_42_" style="fill:#010101;" d="M10,93.1h-1c0,0,0,0,0,0v0L10,93.1C10,93.1,10,93.1,10,93.1z"/>
				<path id="XMLID_41_" style="fill:#010101;" d="M10,92.7c0,0,0,0.1,0,0.1c0,0.1,0,0.2,0,0.3H9.1v-0.8h0.8c0,0,0,0,0,0.1
					C9.9,92.4,9.9,92.5,10,92.7z"/>
				<path id="XMLID_40_" style="fill:#010101;" d="M9.9,92.2h9.7v0.8H10c0-0.1,0-0.2,0-0.3c0,0,0-0.1,0-0.1
					C9.9,92.5,9.9,92.4,9.9,92.2C9.9,92.3,9.9,92.3,9.9,92.2z"/>
				<path id="XMLID_39_" style="fill:#010101;" d="M9.9,92.2C9.9,92.2,9.9,92.2,9.9,92.2l-0.8,0.1v-0.1H9.9z"/>
				<path id="XMLID_38_" style="fill:#010101;" d="M9.8,42.8c0,0.3-0.1,0.6-0.1,0.9c0,0.1,0,0.2,0,0.2c-0.1,0-0.1,0.1-0.2,0.1
					c-0.2,0.1-0.2,0.2-0.3,0.2l-0.5-0.5c0,0,0-0.1,0-0.1c0-0.1,0-0.2,0-0.2c0.1,0,0.1-0.1,0.2-0.1C9.2,43.1,9.4,43,9.8,42.8z"/>
				<path id="XMLID_37_" style="fill:#010101;" d="M9.7,43.9c-0.1,0.9-0.1,1.7-0.1,2.6H8.6c0-0.9,0.1-1.9,0.1-2.8l0.5,0.5
					c0,0,0.1-0.1,0.3-0.2C9.5,44,9.6,44,9.7,43.9z"/>
				<path id="XMLID_36_" style="fill:#010101;" d="M8.6,46.5h0.9c0,0.2,0,0.3,0,0.5v0.5v11.1H9.1v0.9H8.6V47
					C8.6,46.9,8.6,46.7,8.6,46.5z"/>
				<rect id="XMLID_35_" x="9.1" y="58.6" style="fill:#010101;" width="0.5" height="0.9"/>
				<path id="XMLID_34_" style="fill:#010101;" d="M10.4,98.6c-0.1-0.5-0.3-0.9-0.4-1.3c-0.1-0.2-0.1-0.4-0.2-0.6
					c0-0.1,0-0.2-0.1-0.3h0L9.7,96c0-0.2-0.1-0.4-0.1-0.6c0-0.2-0.1-0.4-0.1-0.6c0-0.2-0.1-0.4-0.1-0.6c0,0,0-0.1,0-0.1
					c0-0.2-0.1-0.4-0.1-0.6l0,0c0-0.1,0-0.3-0.1-0.4h1c0,0.1,0,0.2,0,0.2l0,0c0,0.2,0.1,0.4,0.1,0.6l0,0.1c0,0.2,0.1,0.4,0.1,0.6
					c0,0.2,0.1,0.4,0.1,0.6c0,0.1,0.1,0.2,0.1,0.4l0,0.2c0.1,0.2,0.1,0.4,0.2,0.6c0.1,0.2,0.1,0.4,0.2,0.6c0.1,0.4,0.2,0.7,0.3,1.1
					l-0.3,0l0,0.9l-0.3,0.1c-0.1-0.1-0.1-0.3-0.1-0.4l0,0C10.4,98.7,10.4,98.6,10.4,98.6z"/>
				<polygon id="XMLID_33_" style="fill:#010101;" points="9.1,93.1 9.1,93.1 9.1,93.1 				"/>
				<path id="XMLID_32_" style="fill:#010101;" d="M9.1,93c0,0,0-0.1,0-0.2c0-0.1,0-0.2,0-0.3c0-0.1,0-0.2,0-0.3
					c-0.1-0.6-0.1-1.2-0.2-1.8c0-0.1,0-0.3,0-0.4l0,0c0-0.1,0-0.1,0-0.2c0-0.2,0-0.3,0-0.5l0-0.1l0,0c0-0.1,0-0.3,0-0.4
					c0,0,0-0.1,0-0.1l0,0c0-0.1,0-0.3,0-0.4c0-0.2,0-0.4,0-0.6v0c0-0.2,0-0.4,0-0.7V63.2h0.9v23.7c0,0.2,0,0.4,0,0.7v0
					c0,0.2,0,0.4,0,0.5c0,0.1,0,0.3,0,0.4v0c0,0,0,0,0,0l0,0c0,0.2,0,0.3,0,0.5l0,0.1c0,0.1,0,0.3,0,0.4l0,0c0,0,0,0.1,0,0.1l0,0.1
					c0,0.1,0,0.3,0,0.4c0.1,0.6,0.1,1.1,0.2,1.7c0,0.1,0,0.1,0,0.2H9.1v0.1v0.8v0C9.1,93.1,9.1,93,9.1,93z"/>
				<polygon id="XMLID_31_" style="fill:#010101;" points="8.6,59.5 9.1,59.5 9.5,59.5 9.5,63.2 8.6,63.2 				"/>
				<path id="XMLID_30_" style="fill:#010101;" d="M8.8,43.4c0,0.1,0,0.2,0,0.2c0,0,0,0.1,0,0.1l-0.2-0.2
					C8.6,43.5,8.7,43.4,8.8,43.4z"/>
				<path id="XMLID_29_" style="fill:#010101;" d="M8.6,46.5c0,0.2,0,0.3,0,0.5L8.6,46.5L8.6,46.5z"/>
			</g>
			<g>
			</g>
		</g>
		<g>
			<path style="fill:#010101;" d="M7,31.9c0,0.3-0.1,0.8-0.2,1.2c-0.2,0.6-0.6,1-1.2,1.3c-0.7,0.3-1.7,0.2-2.9-0.2
				c-2.5-1-2.9-2.6-2.4-3.8c0.2-0.4,0.4-0.7,0.5-0.9L1.3,30c-0.2,0.1-0.3,0.3-0.5,0.7c-0.3,0.8,0,1.9,2,2.7c2,0.8,2.9,0.3,3.3-0.5
				c0.1-0.2,0.1-0.4,0.1-0.5l-2.1-0.8l-0.3,0.8l-0.6-0.2l0.6-1.5L7,31.9z"/>
			<path style="fill:#010101;" d="M7.9,23.1c2.2,1.3,2.6,2.6,2.1,3.6c-0.6,1-2.1,1-4.1-0.2c-2-1.2-2.6-2.5-2-3.6
				C4.6,21.9,6,21.9,7.9,23.1z M6.4,25.8C7.6,26.5,9,27,9.4,26.2c0.5-0.8-0.7-1.8-1.9-2.5c-1.1-0.7-2.6-1.3-3-0.5
				C4.1,24,5.2,25,6.4,25.8z"/>
			<path style="fill:#010101;" d="M8.3,16.9c0.2-0.3,0.4-0.6,0.7-1c0.4-0.5,0.9-0.8,1.4-0.8c0.4,0,0.8,0.1,1.2,0.4
				c0.5,0.5,0.7,1.1,0.5,1.8l0,0c0.7-0.5,1.5-0.4,2.2,0.2c0.4,0.4,0.7,0.8,0.7,1.3c0.1,0.6-0.2,1.2-0.7,1.8
				c-0.3,0.4-0.6,0.6-0.7,0.7L8.3,16.9z M11,18.2l0.2-0.3c0.4-0.5,0.4-1.2-0.1-1.7c-0.5-0.4-1.1-0.5-1.6,0.1
				c-0.1,0.1-0.2,0.3-0.2,0.4L11,18.2z M13.6,20.4c0.1-0.1,0.2-0.1,0.3-0.3c0.5-0.6,0.5-1.3-0.2-1.9c-0.7-0.6-1.5-0.4-2,0.1
				l-0.2,0.3L13.6,20.4z"/>
			<path style="fill:#010101;" d="M15,10.1l4.5,5.4L18.8,16l-4.5-5.4L15,10.1z"/>
			<path style="fill:#010101;" d="M23.7,8.6l-1.5,0.9l1.3,2.3l1.7-1l0.4,0.6l-2.4,1.4l-3.5-6l2.3-1.3L22.3,6l-1.6,0.9l1.2,2L23.3,8
				L23.7,8.6z"/>
			<path style="fill:#010101;" d="M27.1,3.1c0.3-0.2,0.7-0.4,1-0.5c0.7-0.2,1.2-0.3,1.7,0c0.4,0.2,0.7,0.6,0.9,1.1
				c0.3,0.8,0.1,1.5-0.5,2.1l0,0c0.5,0,1,0.4,1.4,1.2c0.5,0.9,0.8,1.4,0.9,1.6l-0.8,0.3c-0.2-0.2-0.5-0.7-0.9-1.5
				c-0.5-0.9-0.9-1.1-1.5-0.9l-0.3,0.1l1,2.9l-0.8,0.3L27.1,3.1z M28.9,5.9l0.3-0.1c0.7-0.2,1-0.9,0.8-1.7c-0.3-0.8-0.7-1.1-1.5-0.9
				c-0.1,0.1-0.3,0.1-0.4,0.2L28.9,5.9z"/>
			<path style="fill:#010101;" d="M36.5,7.7l-0.6-6.9l0.8-0.1l1.6,3.1c0.4,0.7,0.8,1.6,1.1,2.3l0,0c-0.2-1.1-0.3-2-0.4-3.2l-0.2-2.5
				l0.7-0.1l0.6,6.9l-0.8,0.1l-1.6-3.2c-0.3-0.7-0.7-1.4-1-2.3h0c0.1,0.9,0.2,1.8,0.4,3.3l0.2,2.4L36.5,7.7z"/>
			<path style="fill:#010101;" d="M48.7,4.6c-0.4,2.6-1.4,3.4-2.5,3.3C45,7.7,44.4,6.3,44.7,4c0.3-2.3,1.3-3.4,2.6-3.2
				C48.5,1,49,2.4,48.7,4.6z M45.6,4.2c-0.2,1.4-0.1,2.9,0.7,3c0.9,0.1,1.4-1.3,1.6-2.7c0.2-1.3,0.2-2.9-0.7-3
				C46.3,1.4,45.8,2.8,45.6,4.2z"/>
			<path style="fill:#010101;" d="M60.1,5.1l0.7,0.4L57.8,11l1.7,1l-0.3,0.6l-2.4-1.4L60.1,5.1z"/>
			<path style="fill:#010101;" d="M67.3,14.3c-1.7,2-3,2.2-3.9,1.5c-0.9-0.7-0.7-2.2,0.8-4c1.5-1.8,2.9-2.2,3.9-1.4
				C69,11.1,68.7,12.6,67.3,14.3z M64.8,12.3c-0.9,1.1-1.6,2.4-1,2.9c0.7,0.6,1.9-0.4,2.7-1.5c0.8-1,1.6-2.3,0.9-2.9
				C66.9,10.3,65.7,11.2,64.8,12.3z"/>
			<path style="fill:#010101;" d="M70,22.3c-0.2-0.1-0.5-0.3-0.8-0.6c-0.9-1.1-0.7-2.5,1.2-4c2.1-1.8,3.7-1.3,4.4-0.4
				c0.3,0.3,0.4,0.6,0.4,0.8l-0.6,0.3c-0.1-0.2-0.1-0.4-0.3-0.6c-0.5-0.6-1.6-0.8-3.2,0.6c-1.6,1.4-1.7,2.4-1.1,3.1
				c0.2,0.2,0.4,0.4,0.6,0.5L70,22.3z"/>
			<path style="fill:#010101;" d="M74.5,25.5l-2,0.6l-0.4-0.7l6.8-2.1l0.4,0.8L74.1,29l-0.4-0.7l1.6-1.4L74.5,25.5z M75.8,26.5
				l1.3-1.2c0.4-0.3,0.8-0.7,1.2-1l0,0c-0.5,0.2-1.1,0.4-1.5,0.6l-1.7,0.6L75.8,26.5z"/>
			<path style="fill:#010101;" d="M82.4,30.3l0.3,0.7l-5.9,2.3l0.7,1.8l-0.6,0.2l-1-2.6L82.4,30.3z"/>
		</g>
	</g>
	<g id="XMLID_348_">
		<path id="XMLID_359_" style="fill:#010101;" d="M97.2,57.5c1.5,0.7,3.7,1.5,6,1.5c2.5,0,3.8-1,3.8-2.6c0-1.5-1.1-2.4-4-3.4
			c-4-1.4-6.6-3.6-6.6-7.1c0-4.1,3.4-7.3,9.1-7.3c2.7,0,4.7,0.6,6.1,1.2l-1.2,4.4c-1-0.5-2.7-1.1-5-1.1c-2.4,0-3.5,1.1-3.5,2.3
			c0,1.5,1.4,2.2,4.5,3.4c4.3,1.6,6.3,3.8,6.3,7.2c0,4-3.1,7.5-9.7,7.5c-2.8,0-5.5-0.7-6.8-1.5L97.2,57.5z"/>
		<path id="XMLID_356_" style="fill:#010101;" d="M121.9,56.9l-1.7,6.2h-5.6l7.4-24.1h7.1l7.5,24.1h-5.9l-1.9-6.2H121.9z M128,52.8
			l-1.5-5.1c-0.4-1.4-0.9-3.2-1.2-4.6h-0.1c-0.4,1.4-0.7,3.3-1.1,4.6l-1.4,5.1H128z"/>
		<path id="XMLID_354_" style="fill:#010101;" d="M139.7,63.1V39h6.4l5,8.8c1.4,2.5,2.9,5.5,3.9,8.3h0.1c-0.4-3.2-0.5-6.4-0.5-10v-7
			h5v24.1h-5.7l-5.1-9.3c-1.4-2.6-3-5.7-4.2-8.5l-0.1,0c0.1,3.2,0.2,6.6,0.2,10.5v7.3H139.7z"/>
		<path id="XMLID_352_" style="fill:#010101;" d="M169,43.5h-6.5V39H181v4.6h-6.6v19.5H169V43.5z"/>
		<path id="XMLID_349_" style="fill:#010101;" d="M204.9,50.8c0,7.9-4.8,12.7-11.8,12.7c-7.1,0-11.3-5.4-11.3-12.3
			c0-7.2,4.6-12.6,11.7-12.6C200.9,38.6,204.9,44.1,204.9,50.8z M187.5,51.1c0,4.7,2.2,8,5.9,8c3.7,0,5.8-3.5,5.8-8.2
			c0-4.3-2.1-8-5.8-8C189.7,42.9,187.5,46.4,187.5,51.1z"/>
	</g>
	<g id="XMLID_330_">
		<path id="XMLID_345_" style="fill:#010101;" d="M96,73.6c2-0.3,4.6-0.5,7.4-0.5c4.6,0,7.5,0.8,9.9,2.6c2.5,1.9,4.1,4.8,4.1,9.1
			c0,4.6-1.7,7.8-4,9.8c-2.5,2.1-6.4,3.1-11.1,3.1c-2.8,0-4.8-0.2-6.2-0.4V73.6z M101.5,93.2c0.5,0.1,1.2,0.1,1.9,0.1
			c4.9,0,8.1-2.7,8.1-8.4c0-5-2.9-7.6-7.6-7.6c-1.2,0-2,0.1-2.5,0.2V93.2z"/>
		<path id="XMLID_342_" style="fill:#010101;" d="M143,85c0,7.9-4.8,12.7-11.8,12.7c-7.1,0-11.3-5.4-11.3-12.3
			c0-7.2,4.6-12.6,11.7-12.6C138.9,72.8,143,78.4,143,85z M125.6,85.3c0,4.7,2.2,8,5.9,8c3.7,0,5.8-3.5,5.8-8.2c0-4.3-2.1-8-5.8-8
			C127.7,77.2,125.6,80.7,125.6,85.3z"/>
		<path id="XMLID_340_" style="fill:#010101;" d="M166.9,88.1c-0.1-2.9-0.2-6.4-0.2-9.9h-0.1c-0.7,3.1-1.8,6.5-2.7,9.3l-2.9,9.4
			h-4.3l-2.6-9.3c-0.8-2.8-1.6-6.3-2.2-9.4h-0.1c-0.1,3.2-0.3,7-0.4,10l-0.4,9.1h-5l1.5-24.1h7.3l2.4,8c0.8,2.8,1.5,5.8,2,8.6h0.1
			c0.7-2.8,1.5-6,2.3-8.6l2.6-8h7.1l1.3,24.1h-5.3L166.9,88.1z"/>
		<path id="XMLID_338_" style="fill:#010101;" d="M182.2,73.2v24.1h-5.5V73.2H182.2z"/>
		<path id="XMLID_336_" style="fill:#010101;" d="M186.9,97.3V73.2h6.4l5,8.8c1.4,2.5,2.9,5.5,3.9,8.3h0.1c-0.4-3.2-0.5-6.4-0.5-10
			v-7h5v24.1h-5.7L196,88c-1.4-2.6-3-5.7-4.2-8.5l-0.1,0c0.1,3.2,0.2,6.6,0.2,10.5v7.2H186.9z"/>
		<path id="XMLID_334_" style="fill:#010101;" d="M231.7,96.2c-1.7,0.6-4.9,1.4-8,1.4c-4.4,0-7.6-1.1-9.8-3.3
			c-2.2-2.1-3.4-5.2-3.4-8.8c0-8,5.9-12.6,13.8-12.6c3.1,0,5.5,0.6,6.7,1.2l-1.1,4.4c-1.3-0.6-3-1-5.6-1c-4.5,0-8,2.6-8,7.8
			c0,5,3.1,7.9,7.6,7.9c1.2,0,2.3-0.1,2.7-0.4v-5h-3.7v-4.3h9V96.2z"/>
		<path id="XMLID_331_" style="fill:#010101;" d="M258,85c0,7.9-4.8,12.7-11.8,12.7c-7.1,0-11.3-5.4-11.3-12.3
			c0-7.2,4.6-12.6,11.7-12.6C254,72.8,258,78.4,258,85z M240.6,85.3c0,4.7,2.2,8,5.9,8c3.7,0,5.8-3.5,5.8-8.2c0-4.3-2.1-8-5.8-8
			C242.7,77.2,240.6,80.7,240.6,85.3z"/>
	</g>
</g>
</svg>