<?xml version="1.0" standalone="no"?><svg xmlns="http://www.w3.org/2000/svg" viewBox="0 0 1440 320"><path fill="#a2d9ff" fill-opacity="1" d="M0,256L18.5,240C36.9,224,74,192,111,181.3C147.7,171,185,181,222,181.3C258.5,181,295,171,332,192C369.2,213,406,267,443,261.3C480,256,517,192,554,170.7C590.8,149,628,171,665,176C701.5,181,738,171,775,149.3C812.3,128,849,96,886,101.3C923.1,107,960,149,997,160C1033.8,171,1071,149,1108,170.7C1144.6,192,1182,256,1218,266.7C1255.4,277,1292,235,1329,224C1366.2,213,1403,235,1422,245.3L1440,256L1440,0L1421.5,0C1403.1,0,1366,0,1329,0C1292.3,0,1255,0,1218,0C1181.5,0,1145,0,1108,0C1070.8,0,1034,0,997,0C960,0,923,0,886,0C849.2,0,812,0,775,0C738.5,0,702,0,665,0C627.7,0,591,0,554,0C516.9,0,480,0,443,0C406.2,0,369,0,332,0C295.4,0,258,0,222,0C184.6,0,148,0,111,0C73.8,0,37,0,18,0L0,0Z"></path></svg>